<svg width="1280" height="720" viewBox="-20.0 -20.0 1320.0 760.0" xmlns="http://www.w3.org/2000/svg">
  <defs><marker id="arrow" viewBox="-10 -4 10 8" refX="0" refY="0" orient="auto" markerWidth="10" markerHeight="8"><path d="M -10 -4 L 0 0 L -10 4 Z" fill="rgba(0,0,0,1.0)" stroke="rgba(0,0,0,0.0)" stroke-width="1.0"   /></marker></defs>
  <g transform="translate(640.0 360.0) rotate(0.0) scale(1.0 1.0)">
<rect x="-640.0" y="-360.0" width="1280" height="720" stroke="rgba(0,0,0,0.0)" fill="rgba(255,255,255,1.0)" />
</g>
  <g transform="translate(640.0 52.0) rotate(0.0) scale(1.0 1.0)">
<text x="0" y="0" font-family="sans-serif" font-size="26" fill="rgba(0,0,139,1.0)" text-anchor="middle" dominant-baseline="middle">Design Patterns Gallery</text>
</g>
  <g transform="translate(640.0 84.0) rotate(0.0) scale(1.0 1.0)">
<text x="0" y="0" font-family="sans-serif" font-size="18" fill="rgba(0,0,0,1.0)" text-anchor="middle" dominant-baseline="middle">Recipe: State Chart</text>
</g>
  <g transform="translate(640.0 108.0) rotate(0.0) scale(1.0 1.0)">
<text x="0" y="0" font-family="sans-serif" font-size="12" fill="rgba(128,128,128,1.0)" text-anchor="middle" dominant-baseline="middle">Finite states with guarded transitions and completion path</text>
</g>
  <g transform="translate(260.0 240.0) rotate(0.0) scale(1.0 1.0)">
<circle cx="0" cy="0" r="52" stroke="rgba(0,0,139,0.75)" fill="rgba(240,255,240,1.0)" />
</g>
  <g transform="translate(260.0 240.0) rotate(0.0) scale(1.0 1.0)">
<text x="0" y="0" font-family="sans-serif" font-size="12" fill="rgba(0,0,0,1.0)" text-anchor="middle" dominant-baseline="middle">Idle</text>
</g>
  <g transform="translate(520.0 240.0) rotate(0.0) scale(1.0 1.0)">
<circle cx="0" cy="0" r="52" stroke="rgba(0,0,139,0.75)" fill="rgba(224,255,255,1.0)" />
</g>
  <g transform="translate(520.0 240.0) rotate(0.0) scale(1.0 1.0)">
<text x="0" y="0" font-family="sans-serif" font-size="12" fill="rgba(0,0,0,1.0)" text-anchor="middle" dominant-baseline="middle">Validate</text>
</g>
  <g transform="translate(780.0 240.0) rotate(0.0) scale(1.0 1.0)">
<circle cx="0" cy="0" r="52" stroke="rgba(0,0,139,0.75)" fill="rgba(224,255,255,1.0)" />
</g>
  <g transform="translate(780.0 240.0) rotate(0.0) scale(1.0 1.0)">
<text x="0" y="0" font-family="sans-serif" font-size="12" fill="rgba(0,0,0,1.0)" text-anchor="middle" dominant-baseline="middle">Execute</text>
</g>
  <g transform="translate(650.0 410.0) rotate(0.0) scale(1.0 1.0)">
<circle cx="0" cy="0" r="52" stroke="rgba(0,0,139,0.75)" fill="rgba(255,228,225,1.0)" />
</g>
  <g transform="translate(650.0 410.0) rotate(0.0) scale(1.0 1.0)">
<text x="0" y="0" font-family="sans-serif" font-size="12" fill="rgba(0,0,0,1.0)" text-anchor="middle" dominant-baseline="middle">Retry</text>
</g>
  <g transform="translate(980.0 240.0) rotate(0.0) scale(1.0 1.0)">
<circle cx="0" cy="0" r="52" stroke="rgba(0,0,139,0.75)" fill="rgba(240,255,240,1.0)" />
</g>
  <g transform="translate(980.0 240.0) rotate(0.0) scale(1.0 1.0)">
<text x="0" y="0" font-family="sans-serif" font-size="12" fill="rgba(0,0,0,1.0)" text-anchor="middle" dominant-baseline="middle">Done</text>
</g>
  <path d="M 314 240.0 L 466 240.0" fill="rgba(0,0,0,0.0)" stroke="rgba(106,90,205,1.0)" stroke-width="1.5"  marker-end="url(#arrow)" />
  <g transform="translate(390.0 224.0) rotate(0.0) scale(1.0 1.0)">
<text x="0" y="0" font-family="sans-serif" font-size="10" fill="rgba(169,169,169,1.0)" text-anchor="middle" dominant-baseline="middle">event:start</text>
</g>
  <path d="M 574 240.0 L 726 240.0" fill="rgba(0,0,0,0.0)" stroke="rgba(106,90,205,1.0)" stroke-width="1.5"  marker-end="url(#arrow)" />
  <g transform="translate(650.0 224.0) rotate(0.0) scale(1.0 1.0)">
<text x="0" y="0" font-family="sans-serif" font-size="10" fill="rgba(169,169,169,1.0)" text-anchor="middle" dominant-baseline="middle">guard:valid</text>
</g>
  <path d="M 834 240.0 L 926 240.0" fill="rgba(0,0,0,0.0)" stroke="rgba(106,90,205,1.0)" stroke-width="1.5"  marker-end="url(#arrow)" />
  <g transform="translate(880.0 224.0) rotate(0.0) scale(1.0 1.0)">
<text x="0" y="0" font-family="sans-serif" font-size="10" fill="rgba(169,169,169,1.0)" text-anchor="middle" dominant-baseline="middle">event:success</text>
</g>
  <path d="M 765 294 L 670 356" fill="rgba(0,0,0,0.0)" stroke="rgba(220,20,60,1.0)" stroke-width="1.5"  marker-end="url(#arrow)" />
  <g transform="translate(730.0 322.0) rotate(0.0) scale(1.0 1.0)">
<text x="0" y="0" font-family="sans-serif" font-size="10" fill="rgba(169,169,169,1.0)" text-anchor="middle" dominant-baseline="middle">event:error</text>
</g>
  <path d="M 628 356 L 546 294" fill="rgba(0,0,0,0.0)" stroke="rgba(220,20,60,1.0)" stroke-width="1.5"  marker-end="url(#arrow)" />
  <g transform="translate(590.0 336.0) rotate(0.0) scale(1.0 1.0)">
<text x="0" y="0" font-family="sans-serif" font-size="10" fill="rgba(169,169,169,1.0)" text-anchor="middle" dominant-baseline="middle">event:retry</text>
</g>
</svg>