<svg width="800" height="500" viewBox="0 0 800 500" xmlns="http://www.w3.org/2000/svg">
  <defs><marker id="arrow" viewBox="-10 -4 10 8" refX="0" refY="0" orient="auto" markerWidth="10" markerHeight="8"><path d="M -10 -4 L 0 0 L -10 4 Z" fill="rgba(0,0,0,1.0)" stroke="rgba(0,0,0,0.0)" stroke-width="1.0"   /></marker></defs>
  <g transform="translate(20.0 20.0) rotate(0.0) scale(1.0 1.0)">
<circle cx="0" cy="0" r="20" stroke="rgba(0,0,139,1.0)" fill="rgba(173,216,230,1.0)" />
</g>
<g transform="translate(20.0 80.0) rotate(0.0) scale(1.0 1.0)">
<circle cx="0" cy="0" r="20" stroke="rgba(0,0,139,1.0)" fill="rgba(173,216,230,1.0)" />
</g>
<g transform="translate(20.0 140.0) rotate(0.0) scale(1.0 1.0)">
<circle cx="0" cy="0" r="20" stroke="rgba(0,0,139,1.0)" fill="rgba(173,216,230,1.0)" />
</g>
<g transform="translate(20.0 200.0) rotate(0.0) scale(1.0 1.0)">
<circle cx="0" cy="0" r="20" stroke="rgba(0,0,139,1.0)" fill="rgba(173,216,230,1.0)" />
</g>
<g transform="translate(181.0 110.0) rotate(0.0) scale(1.0 1.0)">
<text x="0" y="0" font-family="sans-serif" font-size="14" fill="rgba(0,0,0,1.0)" text-anchor="middle" dominant-baseline="middle">Input</text>
</g>
<g transform="translate(322.0 -60.0) rotate(0.0) scale(1.0 1.0)">
<g transform="translate(20.0 20.0) rotate(0.0) scale(1.0 1.0)">
<circle cx="0" cy="0" r="20" stroke="rgba(0,0,139,1.0)" fill="rgba(144,238,144,1.0)" />
</g>
<g transform="translate(20.0 80.0) rotate(0.0) scale(1.0 1.0)">
<circle cx="0" cy="0" r="20" stroke="rgba(0,0,139,1.0)" fill="rgba(144,238,144,1.0)" />
</g>
<g transform="translate(20.0 140.0) rotate(0.0) scale(1.0 1.0)">
<circle cx="0" cy="0" r="20" stroke="rgba(0,0,139,1.0)" fill="rgba(144,238,144,1.0)" />
</g>
<g transform="translate(20.0 200.0) rotate(0.0) scale(1.0 1.0)">
<circle cx="0" cy="0" r="20" stroke="rgba(0,0,139,1.0)" fill="rgba(144,238,144,1.0)" />
</g>
<g transform="translate(20.0 260.0) rotate(0.0) scale(1.0 1.0)">
<circle cx="0" cy="0" r="20" stroke="rgba(0,0,139,1.0)" fill="rgba(144,238,144,1.0)" />
</g>
<g transform="translate(20.0 320.0) rotate(0.0) scale(1.0 1.0)">
<circle cx="0" cy="0" r="20" stroke="rgba(0,0,139,1.0)" fill="rgba(144,238,144,1.0)" />
</g>
</g>
<g transform="translate(515.6 110.0) rotate(0.0) scale(1.0 1.0)">
<text x="0" y="0" font-family="sans-serif" font-size="14" fill="rgba(0,0,0,1.0)" text-anchor="middle" dominant-baseline="middle">Hidden 1</text>
</g>
<g transform="translate(669.2 0.0) rotate(0.0) scale(1.0 1.0)">
<g transform="translate(20.0 20.0) rotate(0.0) scale(1.0 1.0)">
<circle cx="0" cy="0" r="20" stroke="rgba(0,0,139,1.0)" fill="rgba(255,255,224,1.0)" />
</g>
<g transform="translate(20.0 80.0) rotate(0.0) scale(1.0 1.0)">
<circle cx="0" cy="0" r="20" stroke="rgba(0,0,139,1.0)" fill="rgba(255,255,224,1.0)" />
</g>
<g transform="translate(20.0 140.0) rotate(0.0) scale(1.0 1.0)">
<circle cx="0" cy="0" r="20" stroke="rgba(0,0,139,1.0)" fill="rgba(255,255,224,1.0)" />
</g>
<g transform="translate(20.0 200.0) rotate(0.0) scale(1.0 1.0)">
<circle cx="0" cy="0" r="20" stroke="rgba(0,0,139,1.0)" fill="rgba(255,255,224,1.0)" />
</g>
</g>
<g transform="translate(862.8000000000001 110.0) rotate(0.0) scale(1.0 1.0)">
<text x="0" y="0" font-family="sans-serif" font-size="14" fill="rgba(0,0,0,1.0)" text-anchor="middle" dominant-baseline="middle">Hidden 2</text>
</g>
<g transform="translate(1016.4000000000001 60.0) rotate(0.0) scale(1.0 1.0)">
<g transform="translate(20.0 20.0) rotate(0.0) scale(1.0 1.0)">
<circle cx="0" cy="0" r="20" stroke="rgba(0,0,139,1.0)" fill="rgba(240,128,128,1.0)" />
</g>
<g transform="translate(20.0 80.0) rotate(0.0) scale(1.0 1.0)">
<circle cx="0" cy="0" r="20" stroke="rgba(0,0,139,1.0)" fill="rgba(240,128,128,1.0)" />
</g>
</g>
<g transform="translate(1201.6000000000001 110.0) rotate(0.0) scale(1.0 1.0)">
<text x="0" y="0" font-family="sans-serif" font-size="14" fill="rgba(0,0,0,1.0)" text-anchor="middle" dominant-baseline="middle">Output</text>
</g>
  <path d="M 20.0 40.0 L 20.0 60.0" fill="rgba(0,0,0,0.0)" stroke="rgba(128,128,128,1.0)" stroke-width="1"  marker-end="url(#arrow)" />
  <path d="M 20.0 40.0 L 20.0 120.0" fill="rgba(0,0,0,0.0)" stroke="rgba(128,128,128,1.0)" stroke-width="1"  marker-end="url(#arrow)" />
  <path d="M 20.0 40.0 L 20.0 180.0" fill="rgba(0,0,0,0.0)" stroke="rgba(128,128,128,1.0)" stroke-width="1"  marker-end="url(#arrow)" />
  <path d="M 20.0 40.0 L 20.0 240.0" fill="rgba(0,0,0,0.0)" stroke="rgba(128,128,128,1.0)" stroke-width="1"  marker-end="url(#arrow)" />
  <path d="M 20.0 40.0 L 20.0 300.0" fill="rgba(0,0,0,0.0)" stroke="rgba(128,128,128,1.0)" stroke-width="1"  marker-end="url(#arrow)" />
  <path d="M 20.0 60.0 L 20.0 40.0" fill="rgba(0,0,0,0.0)" stroke="rgba(128,128,128,1.0)" stroke-width="1"  marker-end="url(#arrow)" />
  <path d="M 20.0 100.0 L 20.0 120.0" fill="rgba(0,0,0,0.0)" stroke="rgba(128,128,128,1.0)" stroke-width="1"  marker-end="url(#arrow)" />
  <path d="M 20.0 100.0 L 20.0 180.0" fill="rgba(0,0,0,0.0)" stroke="rgba(128,128,128,1.0)" stroke-width="1"  marker-end="url(#arrow)" />
  <path d="M 20.0 100.0 L 20.0 240.0" fill="rgba(0,0,0,0.0)" stroke="rgba(128,128,128,1.0)" stroke-width="1"  marker-end="url(#arrow)" />
  <path d="M 20.0 100.0 L 20.0 300.0" fill="rgba(0,0,0,0.0)" stroke="rgba(128,128,128,1.0)" stroke-width="1"  marker-end="url(#arrow)" />
  <path d="M 20.0 120.0 L 20.0 40.0" fill="rgba(0,0,0,0.0)" stroke="rgba(128,128,128,1.0)" stroke-width="1"  marker-end="url(#arrow)" />
  <path d="M 20.0 120.0 L 20.0 100.0" fill="rgba(0,0,0,0.0)" stroke="rgba(128,128,128,1.0)" stroke-width="1"  marker-end="url(#arrow)" />
  <path d="M 20.0 160.0 L 20.0 180.0" fill="rgba(0,0,0,0.0)" stroke="rgba(128,128,128,1.0)" stroke-width="1"  marker-end="url(#arrow)" />
  <path d="M 20.0 160.0 L 20.0 240.0" fill="rgba(0,0,0,0.0)" stroke="rgba(128,128,128,1.0)" stroke-width="1"  marker-end="url(#arrow)" />
  <path d="M 20.0 160.0 L 20.0 300.0" fill="rgba(0,0,0,0.0)" stroke="rgba(128,128,128,1.0)" stroke-width="1"  marker-end="url(#arrow)" />
  <path d="M 20.0 180.0 L 20.0 40.0" fill="rgba(0,0,0,0.0)" stroke="rgba(128,128,128,1.0)" stroke-width="1"  marker-end="url(#arrow)" />
  <path d="M 20.0 180.0 L 20.0 100.0" fill="rgba(0,0,0,0.0)" stroke="rgba(128,128,128,1.0)" stroke-width="1"  marker-end="url(#arrow)" />
  <path d="M 20.0 180.0 L 20.0 160.0" fill="rgba(0,0,0,0.0)" stroke="rgba(128,128,128,1.0)" stroke-width="1"  marker-end="url(#arrow)" />
  <path d="M 20.0 220.0 L 20.0 240.0" fill="rgba(0,0,0,0.0)" stroke="rgba(128,128,128,1.0)" stroke-width="1"  marker-end="url(#arrow)" />
  <path d="M 20.0 220.0 L 20.0 300.0" fill="rgba(0,0,0,0.0)" stroke="rgba(128,128,128,1.0)" stroke-width="1"  marker-end="url(#arrow)" />
  <path d="M 20.0 40.0 L 20.0 60.0" fill="rgba(0,0,0,0.0)" stroke="rgba(128,128,128,1.0)" stroke-width="1"  marker-end="url(#arrow)" />
  <path d="M 20.0 40.0 L 20.0 120.0" fill="rgba(0,0,0,0.0)" stroke="rgba(128,128,128,1.0)" stroke-width="1"  marker-end="url(#arrow)" />
  <path d="M 20.0 40.0 L 20.0 180.0" fill="rgba(0,0,0,0.0)" stroke="rgba(128,128,128,1.0)" stroke-width="1"  marker-end="url(#arrow)" />
  <path d="M 20.0 60.0 L 20.0 40.0" fill="rgba(0,0,0,0.0)" stroke="rgba(128,128,128,1.0)" stroke-width="1"  marker-end="url(#arrow)" />
  <path d="M 20.0 100.0 L 20.0 120.0" fill="rgba(0,0,0,0.0)" stroke="rgba(128,128,128,1.0)" stroke-width="1"  marker-end="url(#arrow)" />
  <path d="M 20.0 100.0 L 20.0 180.0" fill="rgba(0,0,0,0.0)" stroke="rgba(128,128,128,1.0)" stroke-width="1"  marker-end="url(#arrow)" />
  <path d="M 20.0 120.0 L 20.0 40.0" fill="rgba(0,0,0,0.0)" stroke="rgba(128,128,128,1.0)" stroke-width="1"  marker-end="url(#arrow)" />
  <path d="M 20.0 120.0 L 20.0 100.0" fill="rgba(0,0,0,0.0)" stroke="rgba(128,128,128,1.0)" stroke-width="1"  marker-end="url(#arrow)" />
  <path d="M 20.0 160.0 L 20.0 180.0" fill="rgba(0,0,0,0.0)" stroke="rgba(128,128,128,1.0)" stroke-width="1"  marker-end="url(#arrow)" />
  <path d="M 20.0 180.0 L 20.0 40.0" fill="rgba(0,0,0,0.0)" stroke="rgba(128,128,128,1.0)" stroke-width="1"  marker-end="url(#arrow)" />
  <path d="M 20.0 180.0 L 20.0 100.0" fill="rgba(0,0,0,0.0)" stroke="rgba(128,128,128,1.0)" stroke-width="1"  marker-end="url(#arrow)" />
  <path d="M 20.0 180.0 L 20.0 160.0" fill="rgba(0,0,0,0.0)" stroke="rgba(128,128,128,1.0)" stroke-width="1"  marker-end="url(#arrow)" />
  <path d="M 20.0 240.0 L 20.0 40.0" fill="rgba(0,0,0,0.0)" stroke="rgba(128,128,128,1.0)" stroke-width="1"  marker-end="url(#arrow)" />
  <path d="M 20.0 240.0 L 20.0 100.0" fill="rgba(0,0,0,0.0)" stroke="rgba(128,128,128,1.0)" stroke-width="1"  marker-end="url(#arrow)" />
  <path d="M 20.0 240.0 L 20.0 160.0" fill="rgba(0,0,0,0.0)" stroke="rgba(128,128,128,1.0)" stroke-width="1"  marker-end="url(#arrow)" />
  <path d="M 20.0 240.0 L 20.0 220.0" fill="rgba(0,0,0,0.0)" stroke="rgba(128,128,128,1.0)" stroke-width="1"  marker-end="url(#arrow)" />
  <path d="M 20.0 300.0 L 20.0 40.0" fill="rgba(0,0,0,0.0)" stroke="rgba(128,128,128,1.0)" stroke-width="1"  marker-end="url(#arrow)" />
  <path d="M 20.0 300.0 L 20.0 100.0" fill="rgba(0,0,0,0.0)" stroke="rgba(128,128,128,1.0)" stroke-width="1"  marker-end="url(#arrow)" />
  <path d="M 20.0 300.0 L 20.0 160.0" fill="rgba(0,0,0,0.0)" stroke="rgba(128,128,128,1.0)" stroke-width="1"  marker-end="url(#arrow)" />
  <path d="M 20.0 300.0 L 20.0 220.0" fill="rgba(0,0,0,0.0)" stroke="rgba(128,128,128,1.0)" stroke-width="1"  marker-end="url(#arrow)" />
  <path d="M 20.0 40.0 L 20.0 60.0" fill="rgba(0,0,0,0.0)" stroke="rgba(128,128,128,1.0)" stroke-width="1"  marker-end="url(#arrow)" />
  <path d="M 20.0 60.0 L 20.0 40.0" fill="rgba(0,0,0,0.0)" stroke="rgba(128,128,128,1.0)" stroke-width="1"  marker-end="url(#arrow)" />
  <path d="M 20.0 120.0 L 20.0 40.0" fill="rgba(0,0,0,0.0)" stroke="rgba(128,128,128,1.0)" stroke-width="1"  marker-end="url(#arrow)" />
  <path d="M 20.0 120.0 L 20.0 100.0" fill="rgba(0,0,0,0.0)" stroke="rgba(128,128,128,1.0)" stroke-width="1"  marker-end="url(#arrow)" />
  <path d="M 20.0 180.0 L 20.0 40.0" fill="rgba(0,0,0,0.0)" stroke="rgba(128,128,128,1.0)" stroke-width="1"  marker-end="url(#arrow)" />
  <path d="M 20.0 180.0 L 20.0 100.0" fill="rgba(0,0,0,0.0)" stroke="rgba(128,128,128,1.0)" stroke-width="1"  marker-end="url(#arrow)" />
  <g transform="translate(400.0 50.0) rotate(0.0) scale(1.0 1.0)">
<text x="0" y="0" font-family="serif" font-size="18" fill="rgba(0,0,139,1.0)" text-anchor="middle" dominant-baseline="middle">Neural Network Architecture</text>
</g>
</svg>