<svg width="400" height="400" viewBox="0 0 400 400" xmlns="http://www.w3.org/2000/svg">
  <defs><marker id="arrow" viewBox="-10 -4 10 8" refX="0" refY="0" orient="auto" markerWidth="10" markerHeight="8"><path d="M -10 -4 L 0 0 L -10 4 Z" fill="rgba(0,0,0,1.0)" stroke="rgba(0,0,0,0.0)" stroke-width="1.0"   /></marker></defs>
  <g transform="translate(200.0 50.0) rotate(0.0) scale(1.0 1.0)">
<text x="0" y="0" font-family="serif" font-size="24" fill="rgba(0,0,128,1.0)" text-anchor="middle" dominant-baseline="middle">Tesserax Demo</text>
</g>
  <g transform="translate(100.0 150.0) rotate(0.0) scale(1.0 1.0)">
<circle cx="0" cy="0" r="40" stroke="rgba(255,105,180,1.0)" fill="rgba(255,192,203,1.0)" />
</g>
  <g transform="translate(100.0 220.0) rotate(0.0) scale(1.0 1.0)">
<text x="0" y="0" font-family="sans-serif" font-size="14" fill="rgba(0,0,0,1.0)" text-anchor="middle" dominant-baseline="middle">Circle</text>
</g>
  <g transform="translate(300.0 150.0) rotate(0.0) scale(1.0 1.0)">
<rect x="-40.0" y="-25.0" width="80" height="50" stroke="rgba(255,215,0,1.0)" fill="rgba(255,255,224,1.0)" />
</g>
  <g transform="translate(300.0 220.0) rotate(0.0) scale(1.0 1.0)">
<text x="0" y="0" font-family="sans-serif" font-size="14" fill="rgba(0,0,0,1.0)" text-anchor="middle" dominant-baseline="middle">Rectangle</text>
</g>
  <g transform="translate(100.0 280.0) rotate(0.0) scale(1.0 1.0)">
<rect x="-30.0" y="-30.0" width="60" height="60" stroke="rgba(0,128,128,1.0)" fill="rgba(224,255,255,1.0)" />
</g>
  <g transform="translate(100.0 350.0) rotate(0.0) scale(1.0 1.0)">
<text x="0" y="0" font-family="sans-serif" font-size="14" fill="rgba(0,0,0,1.0)" text-anchor="middle" dominant-baseline="middle">Square</text>
</g>
  <g transform="translate(300.0 280.0) rotate(0.0) scale(1.0 1.0)">
<circle cx="0" cy="0" r="45" stroke="rgba(128,0,128,1.0)" fill="rgba(230,230,250,1.0)" />
</g>
  <g transform="translate(300.0 350.0) rotate(0.0) scale(1.0 1.0)">
<text x="0" y="0" font-family="sans-serif" font-size="14" fill="rgba(0,0,0,1.0)" text-anchor="middle" dominant-baseline="middle">Ellipse</text>
</g>
</svg>