<svg width="1360" height="840" viewBox="-16.0 -16.0 1392.0 872.0" xmlns="http://www.w3.org/2000/svg">
  <defs><marker id="arrow" viewBox="-10 -4 10 8" refX="0" refY="0" orient="auto" markerWidth="10" markerHeight="8"><path d="M -10 -4 L 0 0 L -10 4 Z" fill="rgba(0,0,0,1.0)" stroke="rgba(0,0,0,0.0)" stroke-width="1.0"   /></marker></defs>
  <g transform="translate(680.0 420.0) rotate(0.0) scale(1.0 1.0)">
<rect x="-680.0" y="-420.0" width="1360" height="840" stroke="rgba(0,0,0,0.0)" fill="rgba(255,255,255,1.0)" />
</g>
  <g transform="translate(680.0 52.0) rotate(0.0) scale(1.0 1.0)">
<text x="0" y="0" font-family="sans-serif" font-size="30" fill="rgba(0,0,139,1.0)" text-anchor="middle" dominant-baseline="middle">Dataset Storyboard</text>
</g>
  <g transform="translate(680.0 82.0) rotate(0.0) scale(1.0 1.0)">
<text x="0" y="0" font-family="sans-serif" font-size="18" fill="rgba(0,0,0,1.0)" text-anchor="middle" dominant-baseline="middle">Scene B: Small Multiples Breakdown</text>
</g>
  <g transform="translate(680.0 106.0) rotate(0.0) scale(1.0 1.0)">
<text x="0" y="0" font-family="sans-serif" font-size="12" fill="rgba(128,128,128,1.0)" text-anchor="middle" dominant-baseline="middle">source=synthetic:g4 c5 p18</text>
</g>
  <g transform="translate(267.33333333333337 289.5) rotate(0.0) scale(1.0 1.0)">
<rect x="-195.33333333333334" y="-153.5" width="390.6666666666667" height="307.0" stroke="rgba(211,211,211,0.72)" fill="rgba(255,255,255,1.0)" />
</g>
  <g transform="translate(55.6 148.0) rotate(0.0) scale(1.0 1.0)">
<text x="0" y="0" font-family="sans-serif" font-size="11" fill="rgba(0,0,0,1.0)" text-anchor="start" dominant-baseline="middle">group=G1</text>
</g>
  <path d="M 88.0 253.57500817960062 L 106.56627450980392 261.36497506571106 Q 109.09803921568627 262.4272432774534, 111.12187275929756 264.2825987871559 L 127.66431372549019 279.44793147345393 Q 130.19607843137254 281.76893440927216, 131.95646509510658 284.71815904435437 L 149.57167976997042 314.22941707739005 Q 151.29411764705884 317.1150650569838, 153.8258823529412 319.32502523232876 L 170.21285425766297 333.62910144438393 Q 172.39215686274508 335.5313998515254, 174.92392156862743 336.93078062471733 L 191.10917469450803 345.8768457866882 Q 193.49019607843138 347.1929062947913, 196.02196078431373 346.1971926985512 L 212.05647058823533 339.8910065890304 Q 214.58823529411768 338.89529299279025, 216.6107047672287 337.0757064128158 L 233.6709555569333 321.72684513176284 Q 235.68627450980392 319.91369177159334, 238.21803921568628 318.9445668759571 L 254.36876886456164 312.7622885034648 Q 256.78431372549016 311.8376509746245, 259.31607843137255 311.3085205474645 L 275.3554380919095 307.95634757150276 Q 277.88235294117646 307.4282307482913, 280.41411764705884 307.9325852946704 L 296.4492238945832 311.12694957300175 Q 298.98039215686276 311.6311853014504, 301.51215686274514 311.12995290438914 L 317.5466666666667 307.9554810563344 Q 320.07843137254906 307.45424865927316, 322.31223017525554 306.1614960337325 L 338.644705882353 296.7095029418084 Q 341.17647058823536 295.2443103439723, 342.94034740605093 292.91078073278715 L 359.7427450980392 270.6819651164443 Q 362.27450980392155 267.3325544035996, 364.6743828516405 263.8874137672681 L 381.0671540142538 240.3547514341157 Q 383.37254901960785 237.0452388649862, 385.9043137254902 233.90551163957537 L 402.6777164758222 213.1042463578381 Q 404.47058823529414 210.88084531989588, 407.00235294117647 209.55869979254916 L 423.11071714976293 201.1465429907061 Q 425.5686274509804 199.86296592533995, 428.10039215686277 200.99392154145104 L 446.6666666666667 209.28759605959908" fill="rgba(0,0,0,0.0)" stroke="rgba(30,144,255,0.9)" stroke-width="1.7"   />
  <g transform="translate(445.56666666666666 209.28759605959908) rotate(0.0) scale(1.0 1.0)">
<text x="0" y="0" font-family="sans-serif" font-size="8.5" fill="rgba(30,144,255,1.0)" text-anchor="start" dominant-baseline="middle">C1</text>
</g>
  <path d="M 88.0 393.7838382210925 L 106.56627450980392 408.9340605865311 Q 109.09803921568627 411.0, 111.28774445656518 408.57448373657417 L 127.66431372549019 390.43430926955136 Q 130.19607843137254 387.62989689721746, 132.28981267970403 384.4849265988816 L 148.7623529411765 359.74174350305344 Q 151.29411764705884 355.93881349475834, 153.1201768503221 351.75101968893165 L 170.09317389064472 312.8259882634693 Q 172.39215686274508 307.5536144909992, 174.92392156862743 302.38898329635555 L 191.46201206937917 268.65238135164424 Q 193.49019607843138 264.51502120230214, 196.02196078431373 260.6651579769411 L 213.07544990884531 234.73320604946232 Q 214.58823529411768 232.43282765762675, 217.12000000000003 231.35096452323023 L 233.21528816791073 224.4731931150526 Q 235.68627450980392 223.41730153765585, 238.21803921568628 224.31777252502226 L 254.2525490196078 230.0207554450095 Q 256.78431372549016 230.92122643237593, 259.2753099821262 231.92900526449415 L 275.3505882352941 238.43255784944697 Q 277.88235294117646 239.4568303154112, 279.8224691549661 241.37904666313972 L 297.03828981337153 258.4360310200253 Q 298.98039215686276 260.36021517306057, 301.51215686274514 261.39191941432085 L 317.5466666666667 267.92604627563617 Q 320.07843137254906 268.95775051689645, 322.50517919708227 270.2167744100412 L 338.644705882353 278.59014123265763 Q 341.17647058823536 279.90364905753415, 343.1105314069163 281.99996584695475 L 359.7427450980392 300.0275213763156 Q 362.27450980392155 302.77168578342213, 364.3735204973712 305.8594721957191 L 380.93337623462594 330.22013776767807 Q 383.37254901960785 333.8083255773998, 385.9043137254902 337.33179306084276 L 402.79126431883225 360.8334325188477 Q 404.47058823529414 363.1705546060914, 407.00235294117647 364.53892441763054 L 423.24787878836935 373.3193166437441 Q 425.5686274509804 374.5736363689178, 428.10039215686277 375.3148244705621 L 446.6666666666667 380.75020388262016" fill="rgba(0,0,0,0.0)" stroke="rgba(255,140,0,0.9)" stroke-width="1.3"   />
  <g transform="translate(445.56666666666666 380.75020388262016) rotate(0.0) scale(1.0 1.0)">
<text x="0" y="0" font-family="sans-serif" font-size="8.5" fill="rgba(255,140,0,1.0)" text-anchor="start" dominant-baseline="middle">C2</text>
</g>
  <path d="M 88.0 232.34899496009885 L 106.56627450980392 257.7396190085084 Q 109.09803921568627 261.2019768332915, 111.51786668482713 264.74347217458165 L 127.66431372549019 288.3743168121123 Q 130.19607843137254 292.07963590013327, 132.31885087219794 296.03350226541124 L 149.69133107893018 328.39140547247763 Q 151.29411764705884 331.37674849868495, 153.8258823529412 333.62871769055835 L 170.25503074606954 348.24221472844647 Q 172.39215686274508 350.1431584309633, 174.92392156862743 351.47397114234064 L 190.95843137254903 359.9024516477305 Q 193.49019607843138 361.23326435910786, 195.79592768050452 359.5407819285 L 212.05647058823533 347.6050114516868 Q 214.58823529411768 345.74661332794756, 216.48945351010727 343.2468442571215 L 233.3812936978282 321.03703199281887 Q 235.68627450980392 318.00638580283095, 238.21803921568628 315.1624588792774 L 254.2992766600197 297.0984326189622 Q 256.78431372549016 294.30699477321775, 259.31607843137255 291.5578672866386 L 275.7122216262488 273.75404538083785 Q 277.88235294117646 271.3975990517251, 280.41411764705884 269.43482634454085 L 296.7995833634502 256.73185089507945 Q 298.98039215686276 255.04115982518962, 301.51215686274514 253.9436486583767 L 317.5466666666667 246.99274460189486 Q 320.07843137254906 245.89523343508193, 321.9307866276566 243.84996003132727 L 338.644705882353 225.39532805407745 Q 341.17647058823536 222.5998864112132, 343.4190316507731 219.56751994500223 L 360.19008454269186 196.88988621539744 Q 362.27450980392155 194.07134924484865, 364.8062745098039 191.6466540479113 L 381.3540473155777 175.79869426359687 Q 383.37254901960785 173.8655559370374, 385.9043137254902 172.68168922459293 L 401.93882352941176 165.18386671244448 Q 404.47058823529414 164.0, 406.3421767841355 166.07569969471297 L 423.03686274509806 184.5910697390267 Q 425.5686274509804 187.3989428852576, 428.0734136983746 190.23090863119114 L 446.6666666666667 211.25284436181784" fill="rgba(0,0,0,0.0)" stroke="rgba(46,139,87,0.9)" stroke-width="1.3"   />
  <g transform="translate(445.56666666666666 211.25284436181784) rotate(0.0) scale(1.0 1.0)">
<text x="0" y="0" font-family="sans-serif" font-size="8.5" fill="rgba(46,139,87,1.0)" text-anchor="start" dominant-baseline="middle">C3</text>
</g>
  <path d="M 88.0 390.4265563147584 L 106.56627450980392 381.70150063627125 Q 109.09803921568627 380.5117203164776, 110.52639542239748 378.1064743244698 L 127.66431372549019 349.24749004856466 Q 130.19607843137254 344.984185921122, 132.36649668271718 340.52606084175835 L 148.7623529411765 306.8483224896253 Q 151.29411764705884 301.64797747623936, 153.34597114282812 296.2402683479579 L 170.92692630258028 249.90523911837155 Q 172.39215686274508 246.04358881459615, 174.92392156862743 242.78024526278645 L 191.78878550282005 221.04210947002352 Q 193.49019607843138 218.8490592161821, 196.02196078431373 217.71132689409382 L 212.05647058823533 210.5056888542013 Q 214.58823529411768 209.36795653211303, 216.4342136720456 211.44078821628295 L 233.15450980392157 230.21585080924797 Q 235.68627450980392 233.05874548340273, 237.64450499724094 236.32328465645017 L 254.48696638887358 264.4011209153916 Q 256.78431372549016 268.230997134047, 259.31607843137255 271.9101171523843 L 275.5073990190635 295.43908552732245 Q 277.88235294117646 298.8903306201911, 280.41411764705884 302.22824408480614 L 296.6743888053704 323.6660095736429 Q 298.98039215686276 326.70627615864964, 301.51215686274514 329.56127875743147 L 318.3883234767337 348.5920755089885 Q 320.07843137254906 350.4979644818316, 322.61019607843144 350.2168151436661 L 338.644705882353 348.43620266861814 Q 341.17647058823536 348.15505333045263, 343.65985749572224 348.722210225875 L 359.7427450980392 352.39522653052643 Q 362.27450980392155 352.97343196690014, 364.6591432542068 351.94499754488567 L 380.84078431372546 344.96624923105134 Q 383.37254901960785 343.87436067616284, 385.82775871001695 342.6197696996413 L 401.93882352941176 334.38715452891904 Q 404.47058823529414 333.09344459974943, 406.67384129995315 331.29644881793627 L 423.03686274509806 317.9506008142281 Q 425.5686274509804 315.8856675707479, 427.4629301394036 313.2238262624401 L 446.6666666666667 286.23906850723887" fill="rgba(0,0,0,0.0)" stroke="rgba(199,21,133,0.9)" stroke-width="1.3"   />
  <g transform="translate(445.56666666666666 286.23906850723887) rotate(0.0) scale(1.0 1.0)">
<text x="0" y="0" font-family="sans-serif" font-size="8.5" fill="rgba(199,21,133,1.0)" text-anchor="start" dominant-baseline="middle">C4</text>
</g>
  <path d="M 88.0 411.0 L 446.6666666666667 411.0" fill="rgba(0,0,0,0.0)" stroke="rgba(128,128,128,0.55)" stroke-width="0.8"   />
  <path d="M 88.0 411.0 L 88.0 164.0" fill="rgba(0,0,0,0.0)" stroke="rgba(128,128,128,0.55)" stroke-width="0.8"   />
  <g transform="translate(680.0 289.5) rotate(0.0) scale(1.0 1.0)">
<rect x="-195.33333333333334" y="-153.5" width="390.6666666666667" height="307.0" stroke="rgba(211,211,211,0.72)" fill="rgba(255,255,255,1.0)" />
</g>
  <g transform="translate(468.2666666666667 148.0) rotate(0.0) scale(1.0 1.0)">
<text x="0" y="0" font-family="sans-serif" font-size="11" fill="rgba(0,0,0,1.0)" text-anchor="start" dominant-baseline="middle">group=G2</text>
</g>
  <path d="M 500.6666666666667 232.1733692503812 L 520.0785898050353 210.37499579790463 Q 521.7647058823529 208.48159308475738, 524.2964705882353 208.3469500961147 L 540.3309803921569 207.49421116804442 Q 542.8627450980392 207.35956817940175, 544.6984791735821 209.10829390524694 L 561.4290196078432 225.04585635204793 Q 563.9607843137255 227.45762292104513, 565.9713805272743 230.31838389941217 L 582.925690283966 254.44168993184658 Q 585.0588235294118 257.4768017604211, 587.5905882352941 260.18831955103724 L 604.3824836131745 278.1724248470383 Q 606.1568627450981 280.07278334888906, 608.6886274509804 279.48121660420924 L 624.7886775774541 275.7193132091697 Q 627.2549019607843 275.14306047655714, 629.7866666666666 275.21012309523815 L 645.8211764705883 275.6348530135511 Q 648.3529411764706 275.7019156322321, 650.8591609316716 276.06687105336766 L 666.9192156862746 278.40553430676454 Q 669.4509803921569 278.77420958056445, 671.8219655681308 279.735554096737 L 688.0172549019609 286.3021293527423 Q 690.5490196078432 287.3286638671302, 692.4244958926049 289.3151669102886 L 709.2695715882707 307.157458174411 Q 711.6470588235295 309.67569083151545, 714.1788235294118 312.03876271852505 L 730.8936889791181 327.63990785953166 Q 732.7450980392157 329.36795655659523, 735.276862745098 329.4314804204825 L 751.3113725490197 329.83379822510193 Q 753.843137254902 329.8973220889892, 755.5419967339218 328.0190930620121 L 772.409411764706 309.3707769934167 Q 774.9411764705883 306.5717026622023, 776.7339523365562 303.25046729986826 L 793.5074509803922 272.1764563744172 Q 796.0392156862745 267.486195516992, 798.5453824853815 262.78220705912986 L 815.3548099495806 231.23149271599988 Q 817.1372549019609 227.88590514945852, 819.6690196078432 225.0645165467116 L 836.2651839030614 206.56981651275817 Q 838.2352941176471 204.3743334599007, 840.7670588235294 202.86051459126162 L 859.3333333333334 191.75917622124172" fill="rgba(0,0,0,0.0)" stroke="rgba(30,144,255,0.9)" stroke-width="1.7"   />
  <g transform="translate(858.2333333333333 191.75917622124172) rotate(0.0) scale(1.0 1.0)">
<text x="0" y="0" font-family="sans-serif" font-size="8.5" fill="rgba(30,144,255,1.0)" text-anchor="start" dominant-baseline="middle">C1</text>
</g>
  <path d="M 500.6666666666667 227.66666209365206 L 520.467529027854 191.89257293291513 Q 521.7647058823529 189.548971952129, 524.2964705882353 190.42378668853775 L 540.3309803921569 195.9642800191265 Q 542.8627450980392 196.83909475553526, 544.512842252982 198.94914516446852 L 561.504958112739 220.67769666892022 Q 563.9607843137255 223.81806756413616, 566.4925490196078 226.89754465660167 L 582.5270588235295 246.4008995755499 Q 585.0588235294118 249.4803766680154, 587.5489932901083 252.59358502144826 L 604.4310612828932 273.69953367117375 Q 606.1568627450981 275.8571293553332, 608.6886274509804 276.9633740377163 L 624.8451430133168 284.02290029825207 Q 627.2549019607843 285.0758350418589, 629.7866666666666 285.78701521118495 L 645.8211764705883 290.2911562835831 Q 648.3529411764706 291.00233645290916, 650.709517121784 292.1694523739575 L 666.9220177986987 300.19884251420063 Q 669.4509803921569 301.4513345089656, 671.9827450980392 302.698152647312 L 688.0172549019609 310.59466752350573 Q 690.5490196078432 311.8414856618521, 692.4749715417378 313.9042743433193 L 709.8318979262839 332.49439108559 Q 711.6470588235295 334.438517150205, 714.1788235294118 335.2537488424577 L 730.2133333333334 340.4168828933915 Q 732.7450980392157 341.23211458564424, 734.9706970359381 339.77569969153154 L 751.3113725490197 329.08248710823915 Q 753.843137254902 327.42571972495665, 755.460012242984 324.8682940738037 L 772.409411764706 298.0592770329079 Q 774.9411764705883 294.0547621203558, 776.5524722983517 289.59946213424536 L 793.9913644750332 241.38019988964746 Q 796.0392156862745 235.71780610956557, 798.5709803921568 230.25460509018683 L 815.6598301974846 193.37921084064956 Q 817.1372549019609 190.1911309480761, 819.6690196078432 187.7545750523748 L 836.3414228066966 171.7091494189062 Q 838.2352941176471 169.88649848389858, 840.7670588235294 169.18011866583075 L 859.3333333333334 164.0" fill="rgba(0,0,0,0.0)" stroke="rgba(255,140,0,0.9)" stroke-width="1.3"   />
  <g transform="translate(858.2333333333333 164.0) rotate(0.0) scale(1.0 1.0)">
<text x="0" y="0" font-family="sans-serif" font-size="8.5" fill="rgba(255,140,0,1.0)" text-anchor="start" dominant-baseline="middle">C2</text>
</g>
  <path d="M 500.6666666666667 229.27183802873617 L 519.2329411764706 265.82934007201897 Q 521.7647058823529 270.8144539870121, 523.5219700106425 276.12229875253 L 540.8089026934621 328.3377589529712 Q 542.8627450980392 334.54142320630376, 545.3945098039216 340.56586394922454 L 562.5922394019813 381.4885858102107 Q 563.9607843137255 384.7450960639768, 566.4925490196078 387.2084153048373 L 582.9484212719632 403.21940821037333 Q 585.0588235294118 405.2727564044808, 587.5905882352941 403.7693589292478 L 603.6250980392158 394.24784158610544 Q 606.1568627450981 392.74444411087245, 607.8888675002712 390.36322677040425 L 625.3633505409781 366.3387303549241 Q 627.2549019607843 363.738162990558, 629.7866666666666 361.7554666284225 L 645.8211764705883 349.1983896682307 Q 648.3529411764706 347.21569330609515, 650.4680560745312 344.793461616438 L 667.6293102383188 325.1403762413112 Q 669.4509803921569 323.0541977652505, 671.9827450980392 321.93134859576605 L 688.2296870970265 314.7257558770435 Q 690.5490196078432 313.69712135288023, 693.0807843137255 313.5311100457947 L 709.1152941176472 312.47970510091966 Q 711.6470588235295 312.31369379383415, 713.4596679188733 310.5383514191051 L 730.2133333333334 294.12913653723746 Q 732.7450980392157 291.6494241840652, 734.7976493931591 288.76050763631724 L 752.1958319984337 264.2729850549428 Q 753.843137254902 261.9544426197144, 756.3749019607843 260.6585178124856 L 772.409411764706 252.45099403336994 Q 774.9411764705883 251.15506922614114, 777.4419851307171 252.50976833567336 L 793.5074509803922 261.21250222641993 Q 796.0392156862745 262.58397036282156, 797.247154734698 265.19771109793857 L 814.6054901960786 302.75770930185945 Q 817.1372549019609 308.2359464299101, 819.3580765554408 313.84744050373206 L 835.8610113539668 355.5464759384286 Q 838.2352941176471 361.5457301500817, 840.7670588235294 367.4802425320719 L 859.3333333333334 411.0" fill="rgba(0,0,0,0.0)" stroke="rgba(46,139,87,0.9)" stroke-width="1.3"   />
  <g transform="translate(858.2333333333333 411.0) rotate(0.0) scale(1.0 1.0)">
<text x="0" y="0" font-family="sans-serif" font-size="8.5" fill="rgba(46,139,87,1.0)" text-anchor="start" dominant-baseline="middle">C3</text>
</g>
  <path d="M 500.6666666666667 211.04504010522948 L 519.8337367535355 194.3338685302906 Q 521.7647058823529 192.65031667435588, 524.2964705882353 193.04166830922642 L 540.3309803921569 195.52022866340658 Q 542.8627450980392 195.91158029827713, 543.8678076042778 198.26802634828994 L 561.6921989841833 240.0586775767946 Q 563.9607843137255 245.37754969244418, 566.4925490196078 250.5763041061569 L 582.6382707351657 283.73011252931394 Q 585.0588235294118 288.7005031400503, 587.5905882352941 293.6151777098541 L 603.8866535645595 325.249182906119 Q 606.1568627450981 329.6561245550822, 608.6886274509804 333.9181841387596 L 625.8453614274557 362.8004188500442 Q 627.2549019607843 365.173287752394, 629.7866666666666 366.2721411624918 L 646.0284252764634 373.3214976026432 Q 648.3529411764706 374.3303995032087, 650.8847058823529 374.2235131691936 L 666.9192156862746 373.54656638709827 Q 669.4509803921569 373.4396800530832, 671.6668152349074 374.6690429628879 L 688.3301355952248 383.91398649836316 Q 690.5490196078432 385.1450411120209, 693.0807843137255 384.97442693526494 L 709.1152941176472 383.8938704824773 Q 711.6470588235295 383.72325630572135, 714.1584187976481 383.3599206432044 L 730.2133333333334 381.03714610287847 Q 732.7450980392157 380.67085834794534, 734.2749261917569 378.6205839592212 L 751.3113725490197 355.78835304286133 Q 753.843137254902 352.3952841376226, 755.7281028360414 348.60455150664353 L 772.6979652929745 314.4775562965568 Q 774.9411764705883 309.9663790664572, 777.4729411764706 305.6105916677439 L 793.5601749096008 277.9332289917746 Q 796.0392156862745 273.66815074384635, 798.5709803921568 269.43415699002367 L 815.5795198509662 240.9899458581889 Q 817.1372549019609 238.38486946199063, 819.6690196078432 240.05912421953954 L 835.7035294117647 250.66273768401587 Q 838.2352941176471 252.33699244156477, 839.5377793242687 255.07861491843104 L 859.3333333333334 296.7466012704922" fill="rgba(0,0,0,0.0)" stroke="rgba(199,21,133,0.9)" stroke-width="1.3"   />
  <g transform="translate(858.2333333333333 296.7466012704922) rotate(0.0) scale(1.0 1.0)">
<text x="0" y="0" font-family="sans-serif" font-size="8.5" fill="rgba(199,21,133,1.0)" text-anchor="start" dominant-baseline="middle">C4</text>
</g>
  <path d="M 500.6666666666667 411.0 L 859.3333333333334 411.0" fill="rgba(0,0,0,0.0)" stroke="rgba(128,128,128,0.55)" stroke-width="0.8"   />
  <path d="M 500.6666666666667 411.0 L 500.6666666666667 164.0" fill="rgba(0,0,0,0.0)" stroke="rgba(128,128,128,0.55)" stroke-width="0.8"   />
  <g transform="translate(1092.6666666666667 289.5) rotate(0.0) scale(1.0 1.0)">
<rect x="-195.33333333333334" y="-153.5" width="390.6666666666667" height="307.0" stroke="rgba(211,211,211,0.72)" fill="rgba(255,255,255,1.0)" />
</g>
  <g transform="translate(880.9333333333334 148.0) rotate(0.0) scale(1.0 1.0)">
<text x="0" y="0" font-family="sans-serif" font-size="11" fill="rgba(0,0,0,1.0)" text-anchor="start" dominant-baseline="middle">group=G3</text>
</g>
  <path d="M 913.3333333333334 238.99859210489612 L 931.8996078431373 247.28179520820228 Q 934.4313725490197 248.41132290410766, 935.9856547524921 250.70694311959141 L 953.0086462098569 275.849303516068 Q 955.5294117647059 279.572385690771, 958.0611764705882 283.28799699123726 L 975.0053774043712 308.1552622314301 Q 976.6274509803922 310.5358131946567, 979.1592156862745 311.90997222788155 L 995.3025131009928 320.6720257934947 Q 997.7254901960785 321.9871384715302, 1000.2572549019608 323.0782419649202 L 1016.3999560446163 330.03519083484446 Q 1018.8235294117648 331.07966758311363, 1021.3552941176471 330.3348138943432 L 1037.4025728259962 325.61365054418286 Q 1039.921568627451 324.8725535100266, 1042.4533333333334 324.176326437994 L 1058.487843137255 319.7668883151211 Q 1061.0196078431372 319.0706612430885, 1063.503156721074 319.9230400512962 L 1079.585882352941 325.4427923012341 Q 1082.1176470588234 326.3117192637085, 1084.539897254297 327.4508288205966 L 1100.906006048398 335.1473050026473 Q 1103.2156862745098 336.2334763749671, 1105.7474509803922 336.55683139810395 L 1121.7819607843137 338.60474654463746 Q 1124.313725490196 338.9281015677743, 1126.5106519291292 337.62890750264916 L 1142.88 327.9485834431999 Q 1145.4117647058824 326.45137642621245, 1147.1227142576797 324.0588645644085 L 1163.9780392156863 300.4891661742786 Q 1166.5098039215686 296.9488647762876, 1168.81011185845 293.2539831935994 L 1186.0356110192074 265.5854356129753 Q 1187.6078431372548 263.0600295994832, 1190.1396078431371 261.4980574998443 L 1206.54247594355 251.3783089041817 Q 1208.7058823529412 250.04359543582598, 1211.2376470588235 249.8156594604883 L 1227.272156862745 248.37206495001618 Q 1229.8039215686274 248.1441289746785, 1231.6904073326746 249.84793612246614 L 1248.8278025868149 265.3258247368098 Q 1250.9019607843138 267.19913098162317, 1253.4337254901961 268.3830127278956 L 1272.0 277.0648122005602" fill="rgba(0,0,0,0.0)" stroke="rgba(30,144,255,0.9)" stroke-width="1.7"   />
  <g transform="translate(1270.9 277.0648122005602) rotate(0.0) scale(1.0 1.0)">
<text x="0" y="0" font-family="sans-serif" font-size="8.5" fill="rgba(30,144,255,1.0)" text-anchor="start" dominant-baseline="middle">C1</text>
</g>
  <path d="M 913.3333333333334 327.98364430083933 L 931.8996078431373 316.83295490994055 Q 934.4313725490197 315.3124063566362, 936.0588206638141 312.84799708410054 L 953.2838000866769 286.7645855006217 Q 955.5294117647059 283.36410459340215, 958.0611764705882 280.1709541611624 L 974.5673928375737 259.35273523093457 Q 976.6274509803922 256.7545176580709, 979.1592156862745 254.6133166909082 L 995.7711136767616 240.56406007515866 Q 997.7254901960785 238.91117626504854, 1000.2572549019608 239.28771304018412 L 1016.2917647058824 241.6724459493761 Q 1018.8235294117648 242.0489827245117, 1020.9225479939074 243.51381495408637 L 1037.3898039215687 255.00574142901496 Q 1039.921568627451 256.7725721614472, 1041.9175154571574 259.12793192505114 L 1058.8273250436837 279.08271454627464 Q 1061.0196078431372 281.6697647719733, 1063.5513725490196 283.92566818681985 L 1080.2074038143314 298.76685691257575 Q 1082.1176470588234 300.4689598956945, 1084.6494117647057 300.83821765433737 L 1100.7005891733895 303.1792810950821 Q 1103.2156862745098 303.5461078843848, 1105.7474509803922 303.77070262043645 L 1121.7819607843137 305.1931359487633 Q 1124.313725490196 305.41773068481496, 1126.7960618376535 305.9638822933492 L 1142.88 309.5025923911679 Q 1145.4117647058824 310.05961898748876, 1147.2026927680615 311.933835578777 L 1164.2290047867114 329.75196973374636 Q 1166.5098039215686 332.1388392402436, 1169.041568627451 334.2576498048435 L 1185.6589077405904 348.1645478616233 Q 1187.6078431372548 349.7955939452427, 1190.1396078431371 350.0165644892295 L 1206.174117647059 351.41604460114604 Q 1208.7058823529412 351.63701514513286, 1210.9839875134799 350.51056169079527 L 1227.272156862745 342.45655920393125 Q 1229.8039215686274 341.2046788483128, 1231.4125623298405 338.8831897029368 L 1248.5625396218175 314.1334213974605 Q 1250.9019607843138 310.75731595108175, 1253.4337254901961 307.52294633171954 L 1272.0 283.80423578973017" fill="rgba(0,0,0,0.0)" stroke="rgba(255,140,0,0.9)" stroke-width="1.3"   />
  <g transform="translate(1270.9 283.80423578973017) rotate(0.0) scale(1.0 1.0)">
<text x="0" y="0" font-family="sans-serif" font-size="8.5" fill="rgba(255,140,0,1.0)" text-anchor="start" dominant-baseline="middle">C2</text>
</g>
  <path d="M 913.3333333333334 273.9152846586195 L 931.8996078431373 307.24495905446366 Q 934.4313725490197 311.789914653897, 936.6648245404581 316.48865343453923 L 954.0623076503748 353.0894977273621 Q 955.5294117647059 356.1759929928401, 958.0611764705882 358.4714264987719 L 974.664021771418 373.52445544288315 Q 976.6274509803922 375.3046055422715, 979.1592156862745 374.5209244151198 L 995.1937254901961 369.557610609826 Q 997.7254901960785 368.7739294826743, 999.9031978542423 367.2634401611034 L 1016.2917647058824 355.8960947176268 Q 1018.8235294117648 354.1400263405749, 1021.0020281459498 351.96109267109625 L 1037.7249738326364 335.234808263493 Q 1039.921568627451 333.0377749205226, 1042.4533333333334 331.2371773317262 L 1058.8971445931754 319.54229635155355 Q 1061.0196078431372 318.0327950138855, 1063.5513725490196 317.4215569179621 L 1079.643815867823 313.53639555597346 Q 1082.1176470588234 312.9391442145238, 1084.6494117647057 313.1974413311901 L 1100.6839215686275 314.83332307007646 Q 1103.2156862745098 315.0916201867427, 1105.5003355596098 313.97049237488454 L 1121.7819607843137 305.9807396453453 Q 1124.313725490196 304.73834684424565, 1126.4455544612451 302.89208639772926 L 1143.4138224473027 288.19679777280254 Q 1145.4117647058824 286.46648928345684, 1147.9435294117648 285.7076031187593 L 1163.9780392156863 280.9013240756751 Q 1166.5098039215686 280.1424379109776, 1168.9052491531395 281.2593904074902 L 1185.0760784313725 288.79955367023234 Q 1187.6078431372548 289.98006945558524, 1189.27337416216 292.22271442313956 L 1206.174117647059 314.979641047481 Q 1208.7058823529412 318.38867353728494, 1210.6707664895634 322.15305467794286 L 1227.4999354906054 354.3948572451782 Q 1229.8039215686274 358.808899568994, 1232.3356862745097 363.09635673591765 L 1249.2691157441002 391.7725419166761 Q 1250.9019607843138 394.53770929335786, 1253.4337254901961 396.5131841781549 L 1272.0 411.0" fill="rgba(0,0,0,0.0)" stroke="rgba(46,139,87,0.9)" stroke-width="1.3"   />
  <g transform="translate(1270.9 411.0) rotate(0.0) scale(1.0 1.0)">
<text x="0" y="0" font-family="sans-serif" font-size="8.5" fill="rgba(46,139,87,1.0)" text-anchor="start" dominant-baseline="middle">C3</text>
</g>
  <path d="M 913.3333333333334 321.2661572545061 L 931.8996078431373 289.8477487223497 Q 934.4313725490197 285.5634202861466, 936.6876416234385 281.1278197023438 L 953.1019383970779 248.85894486939816 Q 955.5294117647059 244.08677367373096, 958.0611764705882 239.36910344942035 L 975.3015873926291 207.2434588060547 Q 976.6274509803922 204.77285513780916, 979.1592156862745 203.5678803609144 L 995.1937254901961 195.93637344058084 Q 997.7254901960785 194.73139866368606, 999.7937022375729 196.62462228764636 L 1016.2917647058824 211.72680764771525 Q 1018.8235294117648 214.04436341826468, 1020.4182012458856 217.0837579331344 L 1037.667135105247 249.95968502843849 Q 1039.921568627451 254.2565646339545, 1042.4533333333334 258.396107159933 L 1059.2164902113284 285.8045786521231 Q 1061.0196078431372 288.7527523504421, 1063.5513725490196 291.1050127152081 L 1080.0753349215556 306.4574116437075 Q 1082.1176470588234 308.3549220568251, 1084.6494117647057 309.5218634040956 L 1100.8980625218214 317.01119381532277 Q 1103.2156862745098 318.0794332840793, 1105.7474509803922 317.7589915644432 L 1121.7819607843137 315.72952734008106 Q 1124.313725490196 315.40908562044496, 1126.7137722060183 314.5417384099779 L 1143.019865514729 308.6489178862409 Q 1145.4117647058824 307.7845150904584, 1147.9435294117648 308.0264684083645 L 1163.9780392156863 309.55883942176973 Q 1166.5098039215686 309.80079273967584, 1168.6196019269332 308.38053701954755 L 1185.0760784313725 297.3025073554951 Q 1187.6078431372548 295.5981957121977, 1189.4562282194086 293.1696193202548 L 1206.174117647059 271.20413605645496 Q 1208.7058823529412 267.8776733761264, 1210.678860455246 264.1922230783478 L 1227.272156862745 233.1965576349715 Q 1229.8039215686274 228.46731457935945, 1232.2312240184224 223.6836156734682 L 1249.2117234815391 190.21864854089853 Q 1250.9019607843138 186.8875488929488, 1253.4337254901961 184.14104302579494 L 1272.0 164.0" fill="rgba(0,0,0,0.0)" stroke="rgba(199,21,133,0.9)" stroke-width="1.3"   />
  <g transform="translate(1270.9 164.0) rotate(0.0) scale(1.0 1.0)">
<text x="0" y="0" font-family="sans-serif" font-size="8.5" fill="rgba(199,21,133,1.0)" text-anchor="start" dominant-baseline="middle">C4</text>
</g>
  <path d="M 913.3333333333334 411.0 L 1272.0 411.0" fill="rgba(0,0,0,0.0)" stroke="rgba(128,128,128,0.55)" stroke-width="0.8"   />
  <path d="M 913.3333333333334 411.0 L 913.3333333333334 164.0" fill="rgba(0,0,0,0.0)" stroke="rgba(128,128,128,0.55)" stroke-width="0.8"   />
  <g transform="translate(267.33333333333337 614.5) rotate(0.0) scale(1.0 1.0)">
<rect x="-195.33333333333334" y="-153.5" width="390.6666666666667" height="307.0" stroke="rgba(211,211,211,0.72)" fill="rgba(255,255,255,1.0)" />
</g>
  <g transform="translate(55.6 473.0) rotate(0.0) scale(1.0 1.0)">
<text x="0" y="0" font-family="sans-serif" font-size="11" fill="rgba(0,0,0,1.0)" text-anchor="start" dominant-baseline="middle">group=G4</text>
</g>
  <path d="M 88.0 597.2367233224539 L 106.5998511501177 630.9374685733587 Q 109.09803921568627 635.4638918714314, 111.62980392156862 639.9716206740917 L 128.12437813152525 669.3397002120855 Q 130.19607843137254 673.0282985602669, 132.7278431372549 676.4176742226333 L 149.74904441809073 699.2046438140272 Q 151.29411764705884 701.2730957466539, 153.8258823529412 700.7672181384229 L 169.86039215686273 697.5633266196261 Q 172.39215686274508 697.0574490113951, 174.4410040855296 695.4864716919695 L 191.47919836862854 682.422239041994 Q 193.49019607843138 680.8802832746804, 196.02196078431373 680.9894017938789 L 212.05647058823533 681.6804857488024 Q 214.58823529411768 681.7896042680009, 217.11781306028396 681.9411816479121 L 233.15450980392157 682.9021327233622 Q 235.68627450980392 683.0538411490934, 237.91686789754397 684.2610284216239 L 254.5435853301467 693.2593343338169 Q 256.78431372549016 694.4720066276217, 259.31607843137255 694.1863401999325 L 275.3505882352941 692.3771194912347 Q 277.88235294117646 692.0914530635455, 280.11572153755367 690.865279117249 L 296.4486274509804 681.898114570008 Q 298.98039215686276 680.5081138663438, 300.48400948047015 678.0421314198762 L 318.43998950151047 648.5937266656814 Q 320.07843137254906 645.9066274748811, 322.61019607843144 644.0370924257257 L 339.0590432365405 631.8907439878809 Q 341.17647058823536 630.3271687319196, 343.7082352941177 629.6071453678484 L 359.7427450980392 625.0469973953973 Q 362.27450980392155 624.326974031326, 363.9651311979783 626.3444143582545 L 380.84078431372546 646.4823490008965 Q 383.37254901960785 649.5035364967471, 385.8474995132618 652.5714391133562 L 402.6670952423338 673.42069726209 Q 404.47058823529414 675.6562736448607, 407.00235294117647 677.0129446487919 L 423.2728030726846 685.7316252840966 Q 425.5686274509804 686.9618653442868, 428.10039215686277 687.5738029683323 L 446.6666666666667 692.061345544666" fill="rgba(0,0,0,0.0)" stroke="rgba(30,144,255,0.9)" stroke-width="1.7"   />
  <g transform="translate(445.56666666666666 692.061345544666) rotate(0.0) scale(1.0 1.0)">
<text x="0" y="0" font-family="sans-serif" font-size="8.5" fill="rgba(30,144,255,1.0)" text-anchor="start" dominant-baseline="middle">C1</text>
</g>
  <path d="M 88.0 574.1688783020298 L 107.11713323092208 610.8353671988324 Q 109.09803921568627 614.6347269887449, 111.62980392156862 618.091501613699 L 127.66431372549019 639.9844075717423 Q 130.19607843137254 643.4411821966964, 132.66441977003367 646.9435263216412 L 149.83525869772527 671.3073312366428 Q 151.29411764705884 673.377314828577, 153.8258823529412 673.4344898141566 L 169.86039215686273 673.7965980561601 Q 172.39215686274508 673.8537730417396, 174.27366615409028 672.1587732507339 L 191.40219355627767 656.7281556606472 Q 193.49019607843138 654.8471318172095, 196.02196078431373 653.6272249739834 L 212.08721473893854 645.8863345224036 Q 214.58823529411768 644.6812414569922, 217.12000000000003 643.5421538450063 L 233.15450980392157 636.3279323024291 Q 235.68627450980392 635.1888446904431, 238.1910605535513 633.9915978534126 L 254.2525490196078 626.3144685784426 Q 256.78431372549016 625.1043263813517, 259.12452075636253 623.5558730511583 L 275.3505882352941 612.819511741138 Q 277.88235294117646 611.1443097447452, 279.6500598304552 608.6762443873719 L 296.4486274509804 585.2221508104503 Q 298.98039215686276 581.6873109557738, 301.06939110545045 577.8740434963682 L 317.7027244355477 547.5114869369283 Q 320.07843137254906 543.1748615106322, 322.61019607843144 538.9274539468867 L 339.441022298904 510.6912681643663 Q 341.17647058823536 507.77979847941924, 343.7082352941177 505.52622266188894 L 359.9823657408292 491.0402845568069 Q 362.27450980392155 489.0, 364.8062745098039 490.7340279561653 L 380.84078431372546 501.71620501187874 Q 383.37254901960785 503.450232968044, 385.2765210985353 505.8568022692234 L 402.6039132694112 527.7581581396392 Q 404.47058823529414 530.1175848969395, 407.00235294117647 531.7428656497226 L 423.33698278692333 542.2289741851823 Q 425.5686274509804 543.6615911701319, 428.10039215686277 544.4507659329246 L 446.6666666666667 550.2380475267374" fill="rgba(0,0,0,0.0)" stroke="rgba(255,140,0,0.9)" stroke-width="1.3"   />
  <g transform="translate(445.56666666666666 550.2380475267374) rotate(0.0) scale(1.0 1.0)">
<text x="0" y="0" font-family="sans-serif" font-size="8.5" fill="rgba(255,140,0,1.0)" text-anchor="start" dominant-baseline="middle">C2</text>
</g>
  <path d="M 88.0 688.0756264267669 L 107.83082683821013 722.3833718238376 Q 109.09803921568627 724.5756757537322, 111.62980392156862 724.5288654481502 L 127.66431372549019 724.2324001794642 Q 130.19607843137254 724.1855898738822, 131.85956249699552 722.2764422907765 L 148.7623529411765 702.8774458163698 Q 151.29411764705884 699.9717898085272, 153.08766179307582 696.5606508846263 L 169.86039215686273 664.6606201376468 Q 172.39215686274508 659.8454606370722, 174.49105641226825 654.8264752592356 L 192.00840390201986 612.9381862605945 Q 193.49019607843138 609.3948564866225, 196.02196078431373 606.506766907811 L 212.81269228507585 587.3528792833793 Q 214.58823529411768 585.32744332986, 217.12000000000003 584.4081440027558 L 233.15450980392157 578.5859149310958 Q 235.68627450980392 577.6666156039915, 238.04674121137887 576.3692564673136 L 254.54693375687245 567.3004246377612 Q 256.78431372549016 566.0707164014325, 259.31607843137255 566.3996828807504 L 275.3505882352941 568.4831372497644 Q 277.88235294117646 568.8121037290823, 280.26098612877377 567.8846579736189 L 296.5950331943447 561.5158985114648 Q 298.98039215686276 560.5858303292081, 301.51215686274514 560.2048688117816 L 317.5466666666667 557.7921125347469 Q 320.07843137254906 557.4111510173204, 321.34946488395605 559.6336356666694 L 338.644705882353 589.8754878922483 Q 341.17647058823536 594.3024429206475, 343.31136780620926 598.9338549319145 L 359.7427450980392 634.5798230423902 Q 362.27450980392155 640.0721930589915, 364.6166043232857 645.6480834979776 L 381.9555409023138 686.9273785451468 Q 383.37254901960785 690.3008897112677, 385.9043137254902 692.9426045078475 L 402.7006010286273 710.4683250430967 Q 404.47058823529414 712.3151796827655, 407.00235294117647 712.6810953094869 L 423.03686274509806 714.9985609453894 Q 425.5686274509804 715.3644765721108, 427.1803720756052 713.3780209252806 L 446.6666666666667 689.3613998459817" fill="rgba(0,0,0,0.0)" stroke="rgba(46,139,87,0.9)" stroke-width="1.3"   />
  <g transform="translate(445.56666666666666 689.3613998459817) rotate(0.0) scale(1.0 1.0)">
<text x="0" y="0" font-family="sans-serif" font-size="8.5" fill="rgba(46,139,87,1.0)" text-anchor="start" dominant-baseline="middle">C3</text>
</g>
  <path d="M 88.0 715.115397105844 L 106.92053693223232 733.8445262127847 Q 109.09803921568627 736.0, 111.62980392156862 734.274383902524 L 127.66431372549019 723.345481951843 Q 130.19607843137254 721.619865854367, 131.56008605078267 718.876315844615 L 148.7623529411765 684.2758643344482 Q 151.29411764705884 679.1835004908229, 153.0646630031963 673.7791345535761 L 170.60693913195058 620.2335536717396 Q 172.39215686274508 614.7844021651539, 174.92392156862743 609.6394607697522 L 191.93715110118697 575.0659205477237 Q 193.49019607843138 571.9098905368066, 196.02196078431373 569.4680384517692 L 212.7640243343676 553.3205494325315 Q 214.58823529411768 551.5611231614944, 217.12000000000003 551.6772864213324 L 233.15450980392157 552.4129870669728 Q 235.68627450980392 552.5291503268108, 238.18218374638883 552.9693360962514 L 254.2525490196078 555.803552180431 Q 256.78431372549016 556.2500615241065, 259.13694416304 557.2865619554885 L 275.56490044757163 564.5242408972667 Q 277.88235294117646 565.5452429513889, 280.41411764705884 565.4886856469511 L 296.4486274509804 565.1304893855115 Q 298.98039215686276 565.0739320810737, 300.39892684893704 567.1717382165444 L 317.5466666666667 592.53074705861 Q 320.07843137254906 596.2748581919104, 322.50764590071606 600.0863037812634 L 338.644705882353 625.4054040002732 Q 341.17647058823536 629.377751155959, 343.04110320076484 633.7035481543777 L 360.5290206906895 674.2741037041316 Q 362.27450980392155 678.3234974109963, 364.8062745098039 681.9338282977235 L 381.90458658541394 706.3162537474697 Q 383.37254901960785 708.4095881337228, 385.9043137254902 708.7661411240658 L 401.93882352941176 711.024310062905 Q 404.47058823529414 711.380863053248, 405.5345732322791 709.0560192978389 L 423.03686274509806 670.8129156877841 Q 425.5686274509804 665.2809228652209, 427.8847218714743 659.6552243530182 L 446.6666666666667 614.0346494940475" fill="rgba(0,0,0,0.0)" stroke="rgba(199,21,133,0.9)" stroke-width="1.3"   />
  <g transform="translate(445.56666666666666 614.0346494940475) rotate(0.0) scale(1.0 1.0)">
<text x="0" y="0" font-family="sans-serif" font-size="8.5" fill="rgba(199,21,133,1.0)" text-anchor="start" dominant-baseline="middle">C4</text>
</g>
  <path d="M 88.0 736.0 L 446.6666666666667 736.0" fill="rgba(0,0,0,0.0)" stroke="rgba(128,128,128,0.55)" stroke-width="0.8"   />
  <path d="M 88.0 736.0 L 88.0 489.0" fill="rgba(0,0,0,0.0)" stroke="rgba(128,128,128,0.55)" stroke-width="0.8"   />
</svg>