<svg width="1360" height="840" viewBox="-16.0 -16.0 1392.0 872.0" xmlns="http://www.w3.org/2000/svg">
  <defs><marker id="arrow" viewBox="-10 -4 10 8" refX="0" refY="0" orient="auto" markerWidth="10" markerHeight="8"><path d="M -10 -4 L 0 0 L -10 4 Z" fill="rgba(0,0,0,1.0)" stroke="rgba(0,0,0,0.0)" stroke-width="1.0"   /></marker></defs>
  <g transform="translate(680.0 420.0) rotate(0.0) scale(1.0 1.0)">
<rect x="-680.0" y="-420.0" width="1360" height="840" stroke="rgba(0,0,0,0.0)" fill="rgba(255,255,255,1.0)" />
</g>
  <g transform="translate(680.0 52.0) rotate(0.0) scale(1.0 1.0)">
<text x="0" y="0" font-family="sans-serif" font-size="30" fill="rgba(0,0,139,1.0)" text-anchor="middle" dominant-baseline="middle">Dataset Storyboard</text>
</g>
  <g transform="translate(680.0 82.0) rotate(0.0) scale(1.0 1.0)">
<text x="0" y="0" font-family="sans-serif" font-size="18" fill="rgba(0,0,0,1.0)" text-anchor="middle" dominant-baseline="middle">Scene C: Annotated Callouts</text>
</g>
  <g transform="translate(680.0 106.0) rotate(0.0) scale(1.0 1.0)">
<text x="0" y="0" font-family="sans-serif" font-size="12" fill="rgba(128,128,128,1.0)" text-anchor="middle" dominant-baseline="middle">source=synthetic:g4 c5 p18</text>
</g>
  <g transform="translate(276.0 495.0) rotate(0.0) scale(1.0 1.0)">
<rect x="-190.0" y="-325.0" width="380.0" height="650" stroke="rgba(211,211,211,0.72)" fill="rgba(255,255,255,1.0)" />
</g>
  <g transform="translate(4.400000000000006 184.0) rotate(0.0) scale(1.0 1.0)">
<text x="0" y="0" font-family="sans-serif" font-size="13" fill="rgba(0,0,0,1.0)" text-anchor="start" dominant-baseline="middle">Top Deltas (t=0 -> t=17)</text>
</g>
  <g transform="translate(307.0 250.83333333333334) rotate(0.0) scale(1.0 1.0)">
<rect x="-109.0" y="-46.833333333333336" width="218.0" height="93.66666666666667" stroke="rgba(0,0,0,0.0)" fill="rgba(0,0,139,0.72)" />
</g>
  <g transform="translate(82.5 252.83333333333334) rotate(0.0) scale(1.0 1.0)">
<text x="0" y="0" font-family="sans-serif" font-size="9" fill="rgba(169,169,169,1.0)" text-anchor="start" dominant-baseline="middle">G3/C4</text>
</g>
  <g transform="translate(395.8 252.83333333333334) rotate(0.0) scale(1.0 1.0)">
<text x="0" y="0" font-family="sans-serif" font-size="9" fill="rgba(169,169,169,1.0)" text-anchor="start" dominant-baseline="middle">+4.006</text>
</g>
  <g transform="translate(293.0123932133043 352.5) rotate(0.0) scale(1.0 1.0)">
<rect x="-95.01239321330426" y="-46.833333333333336" width="190.02478642660853" height="93.66666666666667" stroke="rgba(0,0,0,0.0)" fill="rgba(220,20,60,0.72)" />
</g>
  <g transform="translate(82.5 354.5) rotate(0.0) scale(1.0 1.0)">
<text x="0" y="0" font-family="sans-serif" font-size="9" fill="rgba(169,169,169,1.0)" text-anchor="start" dominant-baseline="middle">G3/C3</text>
</g>
  <g transform="translate(395.8 354.5) rotate(0.0) scale(1.0 1.0)">
<text x="0" y="0" font-family="sans-serif" font-size="9" fill="rgba(169,169,169,1.0)" text-anchor="start" dominant-baseline="middle">-3.492</text>
</g>
  <g transform="translate(288.76119540218826 454.1666666666667) rotate(0.0) scale(1.0 1.0)">
<rect x="-90.76119540218828" y="-46.833333333333336" width="181.52239080437656" height="93.66666666666667" stroke="rgba(0,0,0,0.0)" fill="rgba(220,20,60,0.72)" />
</g>
  <g transform="translate(82.5 456.1666666666667) rotate(0.0) scale(1.0 1.0)">
<text x="0" y="0" font-family="sans-serif" font-size="9" fill="rgba(169,169,169,1.0)" text-anchor="start" dominant-baseline="middle">G2/C3</text>
</g>
  <g transform="translate(395.8 456.1666666666667) rotate(0.0) scale(1.0 1.0)">
<text x="0" y="0" font-family="sans-serif" font-size="9" fill="rgba(169,169,169,1.0)" text-anchor="start" dominant-baseline="middle">-3.335</text>
</g>
  <g transform="translate(268.8964431665804 555.8333333333334) rotate(0.0) scale(1.0 1.0)">
<rect x="-70.89644316658038" y="-46.833333333333336" width="141.79288633316077" height="93.66666666666667" stroke="rgba(0,0,0,0.0)" fill="rgba(0,0,139,0.72)" />
</g>
  <g transform="translate(82.5 557.8333333333334) rotate(0.0) scale(1.0 1.0)">
<text x="0" y="0" font-family="sans-serif" font-size="9" fill="rgba(169,169,169,1.0)" text-anchor="start" dominant-baseline="middle">G1/C5</text>
</g>
  <g transform="translate(395.8 557.8333333333334) rotate(0.0) scale(1.0 1.0)">
<text x="0" y="0" font-family="sans-serif" font-size="9" fill="rgba(169,169,169,1.0)" text-anchor="start" dominant-baseline="middle">+2.605</text>
</g>
  <g transform="translate(258.5990957580945 657.5000000000001) rotate(0.0) scale(1.0 1.0)">
<rect x="-60.59909575809451" y="-46.833333333333336" width="121.19819151618903" height="93.66666666666667" stroke="rgba(0,0,0,0.0)" fill="rgba(0,0,139,0.72)" />
</g>
  <g transform="translate(82.5 659.5000000000001) rotate(0.0) scale(1.0 1.0)">
<text x="0" y="0" font-family="sans-serif" font-size="9" fill="rgba(169,169,169,1.0)" text-anchor="start" dominant-baseline="middle">G1/C4</text>
</g>
  <g transform="translate(395.8 659.5000000000001) rotate(0.0) scale(1.0 1.0)">
<text x="0" y="0" font-family="sans-serif" font-size="9" fill="rgba(169,169,169,1.0)" text-anchor="start" dominant-baseline="middle">+2.227</text>
</g>
  <g transform="translate(257.6065385830493 759.1666666666667) rotate(0.0) scale(1.0 1.0)">
<rect x="-59.60653858304934" y="-46.833333333333336" width="119.21307716609869" height="93.66666666666667" stroke="rgba(0,0,0,0.0)" fill="rgba(0,0,139,0.72)" />
</g>
  <g transform="translate(82.5 761.1666666666667) rotate(0.0) scale(1.0 1.0)">
<text x="0" y="0" font-family="sans-serif" font-size="9" fill="rgba(169,169,169,1.0)" text-anchor="start" dominant-baseline="middle">G4/C4</text>
</g>
  <g transform="translate(395.8 761.1666666666667) rotate(0.0) scale(1.0 1.0)">
<text x="0" y="0" font-family="sans-serif" font-size="9" fill="rgba(169,169,169,1.0)" text-anchor="start" dominant-baseline="middle">+2.190</text>
</g>
  <g transform="translate(680.0 495.0) rotate(0.0) scale(1.0 1.0)">
<rect x="-190.0" y="-325.0" width="380.0" height="650" stroke="rgba(211,211,211,0.72)" fill="rgba(255,255,255,1.0)" />
</g>
  <g transform="translate(404.5 184.0) rotate(0.0) scale(1.0 1.0)">
<text x="0" y="0" font-family="sans-serif" font-size="13" fill="rgba(0,0,0,1.0)" text-anchor="start" dominant-baseline="middle">Outliers (global z-score)</text>
</g>
  <g transform="translate(508.0 252.83333333333334) rotate(0.0) scale(1.0 1.0)">
<circle cx="0" cy="0" r="4.8" stroke="rgba(255,255,255,1.0)" fill="rgba(220,20,60,0.8)" />
</g>
  <g transform="translate(449.8 252.83333333333334) rotate(0.0) scale(1.0 1.0)">
<text x="0" y="0" font-family="sans-serif" font-size="9" fill="rgba(169,169,169,1.0)" text-anchor="start" dominant-baseline="middle">G3/C4 t=17 v=3.596 z=+2.54</text>
</g>
  <g transform="translate(508.0 354.5) rotate(0.0) scale(1.0 1.0)">
<circle cx="0" cy="0" r="4.8" stroke="rgba(255,255,255,1.0)" fill="rgba(220,20,60,0.8)" />
</g>
  <g transform="translate(449.8 354.5) rotate(0.0) scale(1.0 1.0)">
<text x="0" y="0" font-family="sans-serif" font-size="9" fill="rgba(169,169,169,1.0)" text-anchor="start" dominant-baseline="middle">G4/C2 t=13 v=3.545 z=+2.50</text>
</g>
  <g transform="translate(508.0 456.1666666666667) rotate(0.0) scale(1.0 1.0)">
<circle cx="0" cy="0" r="4.8" stroke="rgba(255,255,255,1.0)" fill="rgba(106,90,205,0.8)" />
</g>
  <g transform="translate(447.1 456.1666666666667) rotate(0.0) scale(1.0 1.0)">
<text x="0" y="0" font-family="sans-serif" font-size="9" fill="rgba(169,169,169,1.0)" text-anchor="start" dominant-baseline="middle">G3/C3 t=17 v=-2.695 z=-2.38</text>
</g>
  <g transform="translate(508.0 557.8333333333334) rotate(0.0) scale(1.0 1.0)">
<circle cx="0" cy="0" r="4.8" stroke="rgba(255,255,255,1.0)" fill="rgba(220,20,60,0.8)" />
</g>
  <g transform="translate(449.8 557.8333333333334) rotate(0.0) scale(1.0 1.0)">
<text x="0" y="0" font-family="sans-serif" font-size="9" fill="rgba(169,169,169,1.0)" text-anchor="start" dominant-baseline="middle">G4/C2 t=14 v=3.232 z=+2.25</text>
</g>
  <g transform="translate(508.0 659.5000000000001) rotate(0.0) scale(1.0 1.0)">
<circle cx="0" cy="0" r="4.8" stroke="rgba(255,255,255,1.0)" fill="rgba(220,20,60,0.8)" />
</g>
  <g transform="translate(449.8 659.5000000000001) rotate(0.0) scale(1.0 1.0)">
<text x="0" y="0" font-family="sans-serif" font-size="9" fill="rgba(169,169,169,1.0)" text-anchor="start" dominant-baseline="middle">G1/C3 t=15 v=3.195 z=+2.22</text>
</g>
  <g transform="translate(508.0 761.1666666666667) rotate(0.0) scale(1.0 1.0)">
<circle cx="0" cy="0" r="4.8" stroke="rgba(255,255,255,1.0)" fill="rgba(220,20,60,0.8)" />
</g>
  <g transform="translate(449.8 761.1666666666667) rotate(0.0) scale(1.0 1.0)">
<text x="0" y="0" font-family="sans-serif" font-size="9" fill="rgba(169,169,169,1.0)" text-anchor="start" dominant-baseline="middle">G4/C2 t=12 v=3.138 z=+2.18</text>
</g>
  <g transform="translate(1084.0 495.0) rotate(0.0) scale(1.0 1.0)">
<rect x="-190.0" y="-325.0" width="380.0" height="650" stroke="rgba(211,211,211,0.72)" fill="rgba(255,255,255,1.0)" />
</g>
  <g transform="translate(789.0 184.0) rotate(0.0) scale(1.0 1.0)">
<text x="0" y="0" font-family="sans-serif" font-size="13" fill="rgba(0,0,0,1.0)" text-anchor="start" dominant-baseline="middle">Drivers (category-level delta)</text>
</g>
  <g transform="translate(1101.0 261.0) rotate(0.0) scale(1.0 1.0)">
<rect x="-115.0" y="-57.0" width="230.0" height="114.0" stroke="rgba(0,0,0,0.0)" fill="rgba(46,139,87,0.72)" />
</g>
  <g transform="translate(898.6 263.0) rotate(0.0) scale(1.0 1.0)">
<text x="0" y="0" font-family="sans-serif" font-size="9" fill="rgba(169,169,169,1.0)" text-anchor="start" dominant-baseline="middle">C4</text>
</g>
  <g transform="translate(1203.8 263.0) rotate(0.0) scale(1.0 1.0)">
<text x="0" y="0" font-family="sans-serif" font-size="9" fill="rgba(169,169,169,1.0)" text-anchor="start" dominant-baseline="middle">+1.712</text>
</g>
  <g transform="translate(1093.5091964148346 383.0) rotate(0.0) scale(1.0 1.0)">
<rect x="-107.50919641483463" y="-57.0" width="215.01839282966927" height="114.0" stroke="rgba(0,0,0,0.0)" fill="rgba(255,140,0,0.72)" />
</g>
  <g transform="translate(898.6 385.0) rotate(0.0) scale(1.0 1.0)">
<text x="0" y="0" font-family="sans-serif" font-size="9" fill="rgba(169,169,169,1.0)" text-anchor="start" dominant-baseline="middle">C3</text>
</g>
  <g transform="translate(1203.8 385.0) rotate(0.0) scale(1.0 1.0)">
<text x="0" y="0" font-family="sans-serif" font-size="9" fill="rgba(169,169,169,1.0)" text-anchor="start" dominant-baseline="middle">-1.601</text>
</g>
  <g transform="translate(1037.8911757356843 505.0) rotate(0.0) scale(1.0 1.0)">
<rect x="-51.891175735684364" y="-57.0" width="103.78235147136873" height="114.0" stroke="rgba(0,0,0,0.0)" fill="rgba(46,139,87,0.72)" />
</g>
  <g transform="translate(898.6 507.0) rotate(0.0) scale(1.0 1.0)">
<text x="0" y="0" font-family="sans-serif" font-size="9" fill="rgba(169,169,169,1.0)" text-anchor="start" dominant-baseline="middle">C2</text>
</g>
  <g transform="translate(1203.8 507.0) rotate(0.0) scale(1.0 1.0)">
<text x="0" y="0" font-family="sans-serif" font-size="9" fill="rgba(169,169,169,1.0)" text-anchor="start" dominant-baseline="middle">+0.773</text>
</g>
  <g transform="translate(1016.2330150798455 627.0) rotate(0.0) scale(1.0 1.0)">
<rect x="-30.233015079845448" y="-57.0" width="60.466030159690895" height="114.0" stroke="rgba(0,0,0,0.0)" fill="rgba(46,139,87,0.72)" />
</g>
  <g transform="translate(898.6 629.0) rotate(0.0) scale(1.0 1.0)">
<text x="0" y="0" font-family="sans-serif" font-size="9" fill="rgba(169,169,169,1.0)" text-anchor="start" dominant-baseline="middle">C5</text>
</g>
  <g transform="translate(1203.8 629.0) rotate(0.0) scale(1.0 1.0)">
<text x="0" y="0" font-family="sans-serif" font-size="9" fill="rgba(169,169,169,1.0)" text-anchor="start" dominant-baseline="middle">+0.450</text>
</g>
  <g transform="translate(1008.4304150225306 749.0) rotate(0.0) scale(1.0 1.0)">
<rect x="-22.430415022530646" y="-57.0" width="44.86083004506129" height="114.0" stroke="rgba(0,0,0,0.0)" fill="rgba(255,140,0,0.72)" />
</g>
  <g transform="translate(898.6 751.0) rotate(0.0) scale(1.0 1.0)">
<text x="0" y="0" font-family="sans-serif" font-size="9" fill="rgba(169,169,169,1.0)" text-anchor="start" dominant-baseline="middle">C1</text>
</g>
  <g transform="translate(1203.8 751.0) rotate(0.0) scale(1.0 1.0)">
<text x="0" y="0" font-family="sans-serif" font-size="9" fill="rgba(169,169,169,1.0)" text-anchor="start" dominant-baseline="middle">-0.334</text>
</g>
  <g transform="translate(680.0 814.0) rotate(0.0) scale(1.0 1.0)">
<text x="0" y="0" font-family="sans-serif" font-size="9" fill="rgba(128,128,128,1.0)" text-anchor="middle" dominant-baseline="middle">Callout logic: delta = mean(last_time) - mean(first_time); outlier = global z-score; driver = category aggregate delta</text>
</g>
</svg>