<svg width="1280" height="720" viewBox="-20.0 -20.0 1320.0 760.0" xmlns="http://www.w3.org/2000/svg">
  <defs><marker id="arrow" viewBox="-10 -4 10 8" refX="0" refY="0" orient="auto" markerWidth="10" markerHeight="8"><path d="M -10 -4 L 0 0 L -10 4 Z" fill="rgba(0,0,0,1.0)" stroke="rgba(0,0,0,0.0)" stroke-width="1.0"   /></marker></defs>
  <g transform="translate(640.0 360.0) rotate(0.0) scale(1.0 1.0)">
<rect x="-640.0" y="-360.0" width="1280" height="720" stroke="rgba(0,0,0,0.0)" fill="rgba(255,255,255,1.0)" />
</g>
  <g transform="translate(640.0 52.0) rotate(0.0) scale(1.0 1.0)">
<text x="0" y="0" font-family="sans-serif" font-size="26" fill="rgba(0,0,139,1.0)" text-anchor="middle" dominant-baseline="middle">Design Patterns Gallery</text>
</g>
  <g transform="translate(640.0 84.0) rotate(0.0) scale(1.0 1.0)">
<text x="0" y="0" font-family="sans-serif" font-size="18" fill="rgba(0,0,0,1.0)" text-anchor="middle" dominant-baseline="middle">Recipe: Timeline</text>
</g>
  <g transform="translate(640.0 108.0) rotate(0.0) scale(1.0 1.0)">
<text x="0" y="0" font-family="sans-serif" font-size="12" fill="rgba(128,128,128,1.0)" text-anchor="middle" dominant-baseline="middle">Milestones, phase bands, and event callouts in one compact view</text>
</g>
  <path d="M 140 310 L 1140 310" fill="rgba(0,0,0,0.0)" stroke="rgba(169,169,169,1.0)" stroke-width="2.0"   />
  <g transform="translate(245.0 386.0) rotate(0.0) scale(1.0 1.0)">
<rect x="-85.0" y="-36.0" width="170" height="72" stroke="rgba(128,128,128,0.45)" fill="rgba(255,255,224,0.85)" />
</g>
  <g transform="translate(245.0 386.0) rotate(0.0) scale(1.0 1.0)">
<text x="0" y="0" font-family="sans-serif" font-size="11" fill="rgba(169,169,169,1.0)" text-anchor="middle" dominant-baseline="middle">Discovery</text>
</g>
  <g transform="translate(470.0 386.0) rotate(0.0) scale(1.0 1.0)">
<rect x="-140.0" y="-36.0" width="280" height="72" stroke="rgba(128,128,128,0.45)" fill="rgba(224,255,255,0.85)" />
</g>
  <g transform="translate(470.0 386.0) rotate(0.0) scale(1.0 1.0)">
<text x="0" y="0" font-family="sans-serif" font-size="11" fill="rgba(169,169,169,1.0)" text-anchor="middle" dominant-baseline="middle">Build</text>
</g>
  <g transform="translate(735.0 386.0) rotate(0.0) scale(1.0 1.0)">
<rect x="-125.0" y="-36.0" width="250" height="72" stroke="rgba(128,128,128,0.45)" fill="rgba(240,255,240,0.85)" />
</g>
  <g transform="translate(735.0 386.0) rotate(0.0) scale(1.0 1.0)">
<text x="0" y="0" font-family="sans-serif" font-size="11" fill="rgba(169,169,169,1.0)" text-anchor="middle" dominant-baseline="middle">Verify</text>
</g>
  <g transform="translate(990.0 386.0) rotate(0.0) scale(1.0 1.0)">
<rect x="-130.0" y="-36.0" width="260" height="72" stroke="rgba(128,128,128,0.45)" fill="rgba(255,228,225,0.85)" />
</g>
  <g transform="translate(990.0 386.0) rotate(0.0) scale(1.0 1.0)">
<text x="0" y="0" font-family="sans-serif" font-size="11" fill="rgba(169,169,169,1.0)" text-anchor="middle" dominant-baseline="middle">Launch</text>
</g>
  <g transform="translate(190.0 310.0) rotate(0.0) scale(1.0 1.0)">
<circle cx="0" cy="0" r="8" stroke="rgba(255,255,255,1.0)" fill="rgba(0,0,139,1.0)" />
</g>
  <path d="M 190 310 L 190 224" fill="rgba(0,0,0,0.0)" stroke="rgba(0,0,139,1.0)" stroke-width="1.0"   />
  <g transform="translate(190.0 206.0) rotate(0.0) scale(1.0 1.0)">
<text x="0" y="0" font-family="sans-serif" font-size="11" fill="rgba(0,0,0,1.0)" text-anchor="middle" dominant-baseline="middle">Kickoff</text>
</g>
  <g transform="translate(420.0 310.0) rotate(0.0) scale(1.0 1.0)">
<circle cx="0" cy="0" r="8" stroke="rgba(255,255,255,1.0)" fill="rgba(0,0,139,1.0)" />
</g>
  <path d="M 420 310 L 420 396" fill="rgba(0,0,0,0.0)" stroke="rgba(0,0,139,1.0)" stroke-width="1.0"   />
  <g transform="translate(420.0 414.0) rotate(0.0) scale(1.0 1.0)">
<text x="0" y="0" font-family="sans-serif" font-size="11" fill="rgba(0,0,0,1.0)" text-anchor="middle" dominant-baseline="middle">Spec Freeze</text>
</g>
  <g transform="translate(700.0 310.0) rotate(0.0) scale(1.0 1.0)">
<circle cx="0" cy="0" r="8" stroke="rgba(255,255,255,1.0)" fill="rgba(0,0,139,1.0)" />
</g>
  <path d="M 700 310 L 700 224" fill="rgba(0,0,0,0.0)" stroke="rgba(0,0,139,1.0)" stroke-width="1.0"   />
  <g transform="translate(700.0 206.0) rotate(0.0) scale(1.0 1.0)">
<text x="0" y="0" font-family="sans-serif" font-size="11" fill="rgba(0,0,0,1.0)" text-anchor="middle" dominant-baseline="middle">Beta</text>
</g>
  <g transform="translate(1030.0 310.0) rotate(0.0) scale(1.0 1.0)">
<circle cx="0" cy="0" r="8" stroke="rgba(255,255,255,1.0)" fill="rgba(0,0,139,1.0)" />
</g>
  <path d="M 1030 310 L 1030 396" fill="rgba(0,0,0,0.0)" stroke="rgba(0,0,139,1.0)" stroke-width="1.0"   />
  <g transform="translate(1030.0 414.0) rotate(0.0) scale(1.0 1.0)">
<text x="0" y="0" font-family="sans-serif" font-size="11" fill="rgba(0,0,0,1.0)" text-anchor="middle" dominant-baseline="middle">GA</text>
</g>
</svg>