<svg width="1600" height="1200" viewBox="-334.0 -24.0 668.0 418.0" xmlns="http://www.w3.org/2000/svg">
  <defs><marker id="arrow" viewBox="-10 -4 10 8" refX="0" refY="0" orient="auto" markerWidth="10" markerHeight="8"><path d="M -10 -4 L 0 0 L -10 4 Z" fill="rgba(0,0,0,1.0)" stroke="rgba(0,0,0,0.0)" stroke-width="1.0"   /></marker></defs>
  <g transform="translate(0.0 20.0) rotate(0.0) scale(1.0 1.0)">
<rect x="-50.0" y="-20.0" width="100" height="40" stroke="rgba(139,0,0,1.0)" fill="rgba(255,215,0,1.0)" />
</g>
<g transform="translate(-120.0 137.5) rotate(0.0) scale(1.0 1.0)">
<rect x="-40.0" y="-17.5" width="80" height="35" stroke="rgba(0,0,139,1.0)" fill="rgba(173,216,230,1.0)" />
</g>
<g transform="translate(0.0 137.5) rotate(0.0) scale(1.0 1.0)">
<rect x="-40.0" y="-17.5" width="80" height="35" stroke="rgba(0,0,139,1.0)" fill="rgba(173,216,230,1.0)" />
</g>
<g transform="translate(120.0 137.5) rotate(0.0) scale(1.0 1.0)">
<rect x="-40.0" y="-17.5" width="80" height="35" stroke="rgba(0,0,139,1.0)" fill="rgba(173,216,230,1.0)" />
</g>
<g transform="translate(-275.0 250.0) rotate(0.0) scale(1.0 1.0)">
<rect x="-35.0" y="-15.0" width="70" height="30" stroke="rgba(0,100,0,1.0)" fill="rgba(144,238,144,1.0)" />
</g>
<g transform="translate(-165.0 250.0) rotate(0.0) scale(1.0 1.0)">
<rect x="-35.0" y="-15.0" width="70" height="30" stroke="rgba(0,100,0,1.0)" fill="rgba(144,238,144,1.0)" />
</g>
<g transform="translate(-55.0 250.0) rotate(0.0) scale(1.0 1.0)">
<rect x="-35.0" y="-15.0" width="70" height="30" stroke="rgba(0,100,0,1.0)" fill="rgba(144,238,144,1.0)" />
</g>
<g transform="translate(55.0 250.0) rotate(0.0) scale(1.0 1.0)">
<rect x="-35.0" y="-15.0" width="70" height="30" stroke="rgba(0,100,0,1.0)" fill="rgba(144,238,144,1.0)" />
</g>
<g transform="translate(165.0 250.0) rotate(0.0) scale(1.0 1.0)">
<rect x="-35.0" y="-15.0" width="70" height="30" stroke="rgba(0,100,0,1.0)" fill="rgba(144,238,144,1.0)" />
</g>
<g transform="translate(275.0 250.0) rotate(0.0) scale(1.0 1.0)">
<rect x="-35.0" y="-15.0" width="70" height="30" stroke="rgba(0,100,0,1.0)" fill="rgba(144,238,144,1.0)" />
</g>
<g transform="translate(-200.0 357.5) rotate(0.0) scale(1.0 1.0)">
<rect x="-30.0" y="-12.5" width="60" height="25" stroke="rgba(169,169,169,1.0)" fill="rgba(211,211,211,1.0)" />
</g>
<g transform="translate(-100.0 357.5) rotate(0.0) scale(1.0 1.0)">
<rect x="-30.0" y="-12.5" width="60" height="25" stroke="rgba(169,169,169,1.0)" fill="rgba(211,211,211,1.0)" />
</g>
<g transform="translate(0.0 357.5) rotate(0.0) scale(1.0 1.0)">
<rect x="-30.0" y="-12.5" width="60" height="25" stroke="rgba(169,169,169,1.0)" fill="rgba(211,211,211,1.0)" />
</g>
<g transform="translate(100.0 357.5) rotate(0.0) scale(1.0 1.0)">
<rect x="-30.0" y="-12.5" width="60" height="25" stroke="rgba(169,169,169,1.0)" fill="rgba(211,211,211,1.0)" />
</g>
<g transform="translate(200.0 357.5) rotate(0.0) scale(1.0 1.0)">
<rect x="-30.0" y="-12.5" width="60" height="25" stroke="rgba(169,169,169,1.0)" fill="rgba(211,211,211,1.0)" />
</g>
  <g transform="translate(0.0 20.0) rotate(0.0) scale(1.0 1.0)">
<text x="0" y="0" font-family="sans-serif" font-size="10" fill="rgba(0,0,0,1.0)" text-anchor="middle" dominant-baseline="middle">CEO</text>
</g>
  <g transform="translate(-120.0 137.5) rotate(0.0) scale(1.0 1.0)">
<text x="0" y="0" font-family="sans-serif" font-size="10" fill="rgba(0,0,0,1.0)" text-anchor="middle" dominant-baseline="middle">CTO</text>
</g>
  <g transform="translate(0.0 137.5) rotate(0.0) scale(1.0 1.0)">
<text x="0" y="0" font-family="sans-serif" font-size="10" fill="rgba(0,0,0,1.0)" text-anchor="middle" dominant-baseline="middle">CFO</text>
</g>
  <g transform="translate(120.0 137.5) rotate(0.0) scale(1.0 1.0)">
<text x="0" y="0" font-family="sans-serif" font-size="10" fill="rgba(0,0,0,1.0)" text-anchor="middle" dominant-baseline="middle">COO</text>
</g>
  <g transform="translate(-275.0 250.0) rotate(0.0) scale(1.0 1.0)">
<text x="0" y="0" font-family="sans-serif" font-size="10" fill="rgba(0,0,0,1.0)" text-anchor="middle" dominant-baseline="middle">DevLead</text>
</g>
  <g transform="translate(-165.0 250.0) rotate(0.0) scale(1.0 1.0)">
<text x="0" y="0" font-family="sans-serif" font-size="10" fill="rgba(0,0,0,1.0)" text-anchor="middle" dominant-baseline="middle">QALead</text>
</g>
  <g transform="translate(-55.0 250.0) rotate(0.0) scale(1.0 1.0)">
<text x="0" y="0" font-family="sans-serif" font-size="10" fill="rgba(0,0,0,1.0)" text-anchor="middle" dominant-baseline="middle">Accounting</text>
</g>
  <g transform="translate(55.0 250.0) rotate(0.0) scale(1.0 1.0)">
<text x="0" y="0" font-family="sans-serif" font-size="10" fill="rgba(0,0,0,1.0)" text-anchor="middle" dominant-baseline="middle">Finance</text>
</g>
  <g transform="translate(165.0 250.0) rotate(0.0) scale(1.0 1.0)">
<text x="0" y="0" font-family="sans-serif" font-size="10" fill="rgba(0,0,0,1.0)" text-anchor="middle" dominant-baseline="middle">Marketing</text>
</g>
  <g transform="translate(275.0 250.0) rotate(0.0) scale(1.0 1.0)">
<text x="0" y="0" font-family="sans-serif" font-size="10" fill="rgba(0,0,0,1.0)" text-anchor="middle" dominant-baseline="middle">Sales</text>
</g>
  <g transform="translate(-200.0 357.5) rotate(0.0) scale(1.0 1.0)">
<text x="0" y="0" font-family="sans-serif" font-size="10" fill="rgba(0,0,0,1.0)" text-anchor="middle" dominant-baseline="middle">Dev1</text>
</g>
  <g transform="translate(-100.0 357.5) rotate(0.0) scale(1.0 1.0)">
<text x="0" y="0" font-family="sans-serif" font-size="10" fill="rgba(0,0,0,1.0)" text-anchor="middle" dominant-baseline="middle">Dev2</text>
</g>
  <g transform="translate(0.0 357.5) rotate(0.0) scale(1.0 1.0)">
<text x="0" y="0" font-family="sans-serif" font-size="10" fill="rgba(0,0,0,1.0)" text-anchor="middle" dominant-baseline="middle">QA1</text>
</g>
  <g transform="translate(100.0 357.5) rotate(0.0) scale(1.0 1.0)">
<text x="0" y="0" font-family="sans-serif" font-size="10" fill="rgba(0,0,0,1.0)" text-anchor="middle" dominant-baseline="middle">Sales1</text>
</g>
  <g transform="translate(200.0 357.5) rotate(0.0) scale(1.0 1.0)">
<text x="0" y="0" font-family="sans-serif" font-size="10" fill="rgba(0,0,0,1.0)" text-anchor="middle" dominant-baseline="middle">Sales2</text>
</g>
  <path d="M 0.0 40.0 L -120.0 120.0" fill="rgba(0,0,0,0.0)" stroke="rgba(169,169,169,1.0)" stroke-width="1"  marker-end="url(#arrow)" />
  <path d="M 0.0 40.0 L 0.0 120.0" fill="rgba(0,0,0,0.0)" stroke="rgba(169,169,169,1.0)" stroke-width="1"  marker-end="url(#arrow)" />
  <path d="M 0.0 40.0 L 120.0 120.0" fill="rgba(0,0,0,0.0)" stroke="rgba(169,169,169,1.0)" stroke-width="1"  marker-end="url(#arrow)" />
  <path d="M -120.0 155.0 L -275.0 235.0" fill="rgba(0,0,0,0.0)" stroke="rgba(169,169,169,1.0)" stroke-width="1"  marker-end="url(#arrow)" />
  <path d="M -120.0 155.0 L -165.0 235.0" fill="rgba(0,0,0,0.0)" stroke="rgba(169,169,169,1.0)" stroke-width="1"  marker-end="url(#arrow)" />
  <path d="M 0.0 155.0 L -55.0 235.0" fill="rgba(0,0,0,0.0)" stroke="rgba(169,169,169,1.0)" stroke-width="1"  marker-end="url(#arrow)" />
  <path d="M 0.0 155.0 L 55.0 235.0" fill="rgba(0,0,0,0.0)" stroke="rgba(169,169,169,1.0)" stroke-width="1"  marker-end="url(#arrow)" />
  <path d="M 120.0 155.0 L 165.0 235.0" fill="rgba(0,0,0,0.0)" stroke="rgba(169,169,169,1.0)" stroke-width="1"  marker-end="url(#arrow)" />
  <path d="M 120.0 155.0 L 275.0 235.0" fill="rgba(0,0,0,0.0)" stroke="rgba(169,169,169,1.0)" stroke-width="1"  marker-end="url(#arrow)" />
  <path d="M -275.0 265.0 L -200.0 345.0" fill="rgba(0,0,0,0.0)" stroke="rgba(169,169,169,1.0)" stroke-width="1"  marker-end="url(#arrow)" />
  <path d="M -275.0 265.0 L -100.0 345.0" fill="rgba(0,0,0,0.0)" stroke="rgba(169,169,169,1.0)" stroke-width="1"  marker-end="url(#arrow)" />
  <path d="M -165.0 265.0 L 0.0 345.0" fill="rgba(0,0,0,0.0)" stroke="rgba(169,169,169,1.0)" stroke-width="1"  marker-end="url(#arrow)" />
  <path d="M 275.0 265.0 L 100.0 345.0" fill="rgba(0,0,0,0.0)" stroke="rgba(169,169,169,1.0)" stroke-width="1"  marker-end="url(#arrow)" />
  <path d="M 275.0 265.0 L 200.0 345.0" fill="rgba(0,0,0,0.0)" stroke="rgba(169,169,169,1.0)" stroke-width="1"  marker-end="url(#arrow)" />
</svg>